<svg xmlns="http://www.w3.org/2000/svg" height="50px" viewBox="0 0 337.18 129.45"><defs><style>.cls-1{fill:#000;}</style></defs><title>Asset 1</title><g id="Layer_2" data-name="Layer 2"><g id="Layer_1-2" data-name="Layer 1"><path class="cls-1" d="M64.72,129.45l-.62-.63L0,64.72l.62-.62L64.72,0l.63.62,64.1,64.1-.63.63ZM2.49,64.72,64.72,127,127,64.72,64.72,2.49Z"/><path class="cls-1" d="M64.72,103.06a38.34,38.34,0,1,1,38.34-38.34A38.38,38.38,0,0,1,64.72,103.06Zm0-74.79a36.45,36.45,0,1,0,36.46,36.45A36.49,36.49,0,0,0,64.72,28.27Z"/><path class="cls-1" d="M44.33,71.54l-1,.81a5.64,5.64,0,0,1-1.14.72,7.77,7.77,0,0,1-1.37.52,8.2,8.2,0,0,1-1.87.17,5,5,0,0,1-3.7-1.5,5.15,5.15,0,0,1-1.48-3.78,5.46,5.46,0,0,1,.75-3,5.17,5.17,0,0,1,2.16-1.84,11.88,11.88,0,0,1,3.4-1c1.32-.18,2.73-.32,4.25-.42v-.09a2,2,0,0,0-1-1.92,6.79,6.79,0,0,0-3.08-.54,8.36,8.36,0,0,0-2.17.35,16.61,16.61,0,0,0-2.42.86h-.45V56.81a25.5,25.5,0,0,1,2.53-.53A19.66,19.66,0,0,1,41.25,56c2.91,0,5,.48,6.35,1.45a5.09,5.09,0,0,1,2,4.42V73.33H44.33Zm0-2.63V65.42l-2.14.23a6.86,6.86,0,0,0-1.61.38,2.25,2.25,0,0,0-1.07.73,2,2,0,0,0-.38,1.29,1.85,1.85,0,0,0,.64,1.62,3.29,3.29,0,0,0,1.87.44A3.61,3.61,0,0,0,43,69.8,4.36,4.36,0,0,0,44.33,68.91Z"/><path class="cls-1" d="M61.14,73.76a13.19,13.19,0,0,1-3.83-.52,8.17,8.17,0,0,1-3-1.63,7.36,7.36,0,0,1-2-2.74,11.41,11.41,0,0,1,.06-8,7.92,7.92,0,0,1,2.08-2.79,8.25,8.25,0,0,1,3-1.55,12.69,12.69,0,0,1,6.36-.18,12.94,12.94,0,0,1,2.81,1v4.51h-.68c-.21-.2-.47-.42-.77-.66a7.33,7.33,0,0,0-1-.66A6.67,6.67,0,0,0,62.85,60a5.76,5.76,0,0,0-1.61-.21,3.71,3.71,0,0,0-3.12,1.4A5.9,5.9,0,0,0,57,65a5.26,5.26,0,0,0,1.18,3.77A4.14,4.14,0,0,0,61.33,70a6.18,6.18,0,0,0,1.75-.23,6,6,0,0,0,1.29-.53,6.16,6.16,0,0,0,.9-.65c.25-.22.47-.43.65-.6h.68v4.49l-1,.45a8.66,8.66,0,0,1-1.21.42,13.1,13.1,0,0,1-1.44.32A11.63,11.63,0,0,1,61.14,73.76Z"/><path class="cls-1" d="M89.54,73.33V64.9c0-.83,0-1.54,0-2.11a4,4,0,0,0-.28-1.4,1.46,1.46,0,0,0-.7-.78,2.84,2.84,0,0,0-1.33-.25,3,3,0,0,0-1.19.26,8.27,8.27,0,0,0-1.29.75v12H79.45V64.9c0-.82,0-1.52,0-2.1a4.55,4.55,0,0,0-.28-1.41,1.46,1.46,0,0,0-.7-.78,2.85,2.85,0,0,0-1.32-.25,2.92,2.92,0,0,0-1.27.3,8.21,8.21,0,0,0-1.2.71v12H69.36V56.47h5.27v1.86a13.48,13.48,0,0,1,2.43-1.71A5.19,5.19,0,0,1,79.62,56a4.91,4.91,0,0,1,2.72.74,4.62,4.62,0,0,1,1.79,2.19A15.1,15.1,0,0,1,87,56.76,5.44,5.44,0,0,1,89.71,56a5.54,5.54,0,0,1,2.1.38,4,4,0,0,1,1.58,1.12,5.39,5.39,0,0,1,1.06,1.93,9.82,9.82,0,0,1,.35,2.92v11Z"/><path class="cls-1" d="M147.89,40.87l-1.2,3.93h-2.61l4.45-13.87h3.23l4.5,13.87h-2.71l-1.26-3.93Zm4-1.91-1.09-3.42c-.27-.84-.5-1.79-.7-2.59h0c-.21.8-.42,1.77-.66,2.59L148.3,39Z"/><path class="cls-1" d="M157.6,42.45a5.51,5.51,0,0,0,2.55.75c1.11,0,1.61-.48,1.61-1.14s-.41-1-1.65-1.46c-2-.66-2.76-1.73-2.76-2.92,0-1.77,1.46-3.13,3.79-3.13a5.81,5.81,0,0,1,2.68.6l-.52,1.77a4.37,4.37,0,0,0-2.12-.58c-.9,0-1.4.46-1.4,1.07s.48.93,1.75,1.4c1.83.64,2.66,1.57,2.68,3,0,1.83-1.42,3.15-4.08,3.15a6.47,6.47,0,0,1-3-.7Z"/><path class="cls-1" d="M165.87,42.45a5.51,5.51,0,0,0,2.55.75c1.12,0,1.61-.48,1.61-1.14s-.41-1-1.65-1.46c-1.95-.66-2.75-1.73-2.75-2.92,0-1.77,1.46-3.13,3.78-3.13a5.81,5.81,0,0,1,2.68.6l-.52,1.77a4.37,4.37,0,0,0-2.12-.58c-.9,0-1.39.46-1.39,1.07s.47.93,1.74,1.4c1.84.64,2.66,1.57,2.68,3,0,1.83-1.42,3.15-4.08,3.15a6.47,6.47,0,0,1-3-.7Z"/><path class="cls-1" d="M178.63,45a4.85,4.85,0,0,1-5-5.17,5,5,0,0,1,5.19-5.31,4.81,4.81,0,0,1,5,5.15A5,5,0,0,1,178.65,45Zm.08-1.83c1.45,0,2.45-1.4,2.45-3.44,0-1.57-.7-3.38-2.43-3.38s-2.51,1.75-2.51,3.42c0,1.93,1,3.4,2.47,3.4Z"/><path class="cls-1" d="M192.91,44.49a7.21,7.21,0,0,1-2.84.52,4.83,4.83,0,0,1-5.16-5.13c0-3,2.06-5.33,5.58-5.33a6.62,6.62,0,0,1,2.44.46l-.45,1.91a4.11,4.11,0,0,0-1.91-.39,3,3,0,0,0-3.07,3.25A3,3,0,0,0,190.57,43a4.93,4.93,0,0,0,2-.39Z"/><path class="cls-1" d="M195.73,33.34A1.37,1.37,0,1,1,197.17,32a1.35,1.35,0,0,1-1.44,1.36ZM194.48,44.8v-10H197v10Z"/><path class="cls-1" d="M207.22,42.39a13.91,13.91,0,0,0,.16,2.41H205.1l-.19-1.11h-.06a3.68,3.68,0,0,1-3,1.34,3,3,0,0,1-3.15-3c0-2.51,2.24-3.8,5.94-3.78v-.17c0-.66-.26-1.75-2-1.75a5.34,5.34,0,0,0-2.7.74l-.49-1.64a7.14,7.14,0,0,1,3.62-.89c3.21,0,4.14,2,4.14,4.24Zm-2.47-2.49c-1.79,0-3.5.35-3.5,1.88a1.33,1.33,0,0,0,1.44,1.44,2.06,2.06,0,0,0,2-1.38,1.54,1.54,0,0,0,.07-.56Z"/><path class="cls-1" d="M212.36,32.21v2.57h2.41v1.89h-2.41v4.41c0,1.23.33,1.85,1.3,1.85a3.42,3.42,0,0,0,1-.1l0,1.91a5.65,5.65,0,0,1-1.83.27,2.91,2.91,0,0,1-2.19-.83,4,4,0,0,1-.8-2.82V36.67h-1.42V34.78h1.42V32.91Z"/><path class="cls-1" d="M217.63,33.34A1.37,1.37,0,1,1,219.07,32a1.35,1.35,0,0,1-1.44,1.36ZM216.37,44.8v-10h2.54v10Z"/><path class="cls-1" d="M225.72,45a4.85,4.85,0,0,1-5-5.17,5,5,0,0,1,5.18-5.31,4.81,4.81,0,0,1,5,5.15A5,5,0,0,1,225.74,45Zm.08-1.83c1.44,0,2.45-1.4,2.45-3.44,0-1.57-.7-3.38-2.43-3.38s-2.51,1.75-2.51,3.42c0,1.93,1,3.4,2.47,3.4Z"/><path class="cls-1" d="M232.63,37.76c0-1.15,0-2.12-.08-3h2.2l.12,1.5h.07a3.68,3.68,0,0,1,3.21-1.73c1.75,0,3.56,1.13,3.56,4.3V44.8h-2.53V39.14c0-1.44-.54-2.53-1.92-2.53a2.11,2.11,0,0,0-2,1.48,2.2,2.2,0,0,0-.13.8V44.8h-2.53Z"/><path class="cls-1" d="M248.33,44.8V36.67H247V34.78h1.35v-.43a4.66,4.66,0,0,1,1.22-3.42,3.83,3.83,0,0,1,2.61-1,5.37,5.37,0,0,1,1.61.25l-.17,1.95a3.17,3.17,0,0,0-1.09-.18c-1.25,0-1.67,1.05-1.67,2.28v.52h2.21v1.89h-2.19V44.8Z"/><path class="cls-1" d="M258.46,45a4.85,4.85,0,0,1-5-5.17,5,5,0,0,1,5.18-5.31,4.81,4.81,0,0,1,5,5.15A5,5,0,0,1,258.48,45Zm.08-1.83c1.44,0,2.45-1.4,2.45-3.44,0-1.57-.7-3.38-2.43-3.38s-2.51,1.75-2.51,3.42c0,1.93,1,3.4,2.47,3.4Z"/><path class="cls-1" d="M265.37,38c0-1.36,0-2.35-.08-3.23h2.18l.11,1.89h.06a3,3,0,0,1,2.75-2.12,2.71,2.71,0,0,1,.6.06V37a4.1,4.1,0,0,0-.76-.06A2.22,2.22,0,0,0,268,38.83a4.59,4.59,0,0,0-.06.76V44.8h-2.54Z"/><path class="cls-1" d="M155.05,67.26a9.4,9.4,0,0,1-3.6.61c-4.41,0-7.08-2.75-7.08-7,0-4.57,3.19-7.31,7.43-7.31a7.87,7.87,0,0,1,3.35.6l-.53,2a7,7,0,0,0-2.72-.53c-2.82,0-4.86,1.77-4.86,5.1,0,3,1.77,5,4.84,5a7.66,7.66,0,0,0,2.76-.49Z"/><path class="cls-1" d="M160.85,67.89a4.84,4.84,0,0,1-5-5.16A5,5,0,0,1,161,57.42a4.81,4.81,0,0,1,5,5.14,5,5,0,0,1-5.13,5.33Zm.08-1.83c1.45,0,2.45-1.4,2.45-3.44,0-1.56-.7-3.37-2.42-3.37s-2.52,1.75-2.52,3.42c0,1.93,1,3.39,2.47,3.39Z"/><path class="cls-1" d="M167.77,60.63c0-1.15,0-2.12-.09-3h2.17l.12,1.49H170a3.4,3.4,0,0,1,3.09-1.71,2.91,2.91,0,0,1,2.78,1.85h0A3.92,3.92,0,0,1,177.15,58a3.44,3.44,0,0,1,2.06-.6c1.64,0,3.33,1.13,3.33,4.34v5.91h-2.47V62.13c0-1.67-.57-2.65-1.79-2.65a1.93,1.93,0,0,0-1.77,1.33,2.82,2.82,0,0,0-.12.85v6h-2.47V61.86c0-1.4-.56-2.38-1.73-2.38a2,2,0,0,0-1.83,1.42,2.89,2.89,0,0,0-.12.84v5.93h-2.47Z"/><path class="cls-1" d="M184.91,61c0-1.32,0-2.39-.08-3.34h2.22l.12,1.55h0a3.92,3.92,0,0,1,3.44-1.77c2.31,0,4.22,2,4.22,5.1,0,3.62-2.28,5.37-4.57,5.37a3.31,3.31,0,0,1-2.82-1.33h0v5.18h-2.53Zm2.53,2.49a4,4,0,0,0,.06.7,2.31,2.31,0,0,0,2.25,1.77c1.6,0,2.55-1.34,2.55-3.32,0-1.77-.87-3.21-2.49-3.21a2.42,2.42,0,0,0-2.29,1.88,3.4,3.4,0,0,0-.08.63Z"/><path class="cls-1" d="M205.61,64.66c0,1.19,0,2.18.08,3h-2.2l-.12-1.51h-.06a3.66,3.66,0,0,1-3.23,1.73c-1.82,0-3.48-1.09-3.48-4.36V57.64h2.53V63.1c0,1.67.54,2.74,1.87,2.74a2.07,2.07,0,0,0,1.94-1.36,1.91,1.91,0,0,0,.14-.78V57.64h2.53Z"/><path class="cls-1" d="M210.94,55.07v2.57h2.41v1.9h-2.41v4.4c0,1.24.33,1.85,1.3,1.85a3.42,3.42,0,0,0,1-.1l0,1.92a5.7,5.7,0,0,1-1.83.26,2.94,2.94,0,0,1-2.19-.82,4,4,0,0,1-.8-2.82V59.54H207v-1.9h1.42V55.77Z"/><path class="cls-1" d="M216.21,56.2a1.37,1.37,0,1,1,1.44-1.35,1.34,1.34,0,0,1-1.44,1.35ZM215,67.67v-10h2.54v10Z"/><path class="cls-1" d="M219.91,60.63c0-1.15,0-2.12-.08-3H222l.13,1.51h.06a3.68,3.68,0,0,1,3.21-1.73c1.75,0,3.56,1.13,3.56,4.3v6h-2.53V62c0-1.44-.54-2.53-1.92-2.53a2.13,2.13,0,0,0-2,1.48,2.36,2.36,0,0,0-.12.8v5.91h-2.54Z"/><path class="cls-1" d="M240.45,66.2c0,2.11-.43,3.61-1.48,4.55A5.72,5.72,0,0,1,235.1,72a7.41,7.41,0,0,1-3.5-.8l.56-1.92a6.07,6.07,0,0,0,2.92.76c1.65,0,2.88-.86,2.88-3v-.87h0A3.35,3.35,0,0,1,235,67.61c-2.49,0-4.26-2.06-4.26-4.9,0-3.3,2.14-5.29,4.55-5.29a3.14,3.14,0,0,1,2.9,1.56h0l.1-1.34h2.2c0,.68-.08,1.51-.08,2.89Zm-2.53-4.54a2.4,2.4,0,0,0-.08-.68,2.11,2.11,0,0,0-2.06-1.63c-1.42,0-2.47,1.24-2.47,3.27,0,1.71.86,3.09,2.45,3.09a2.16,2.16,0,0,0,2.06-1.54,3.2,3.2,0,0,0,.1-.89Z"/><path class="cls-1" d="M258.62,62c-.08-1.79-.18-3.93-.16-5.83h-.06c-.46,1.69-1,3.56-1.65,5.31l-2,6h-1.93l-1.85-5.92c-.54-1.77-1-3.67-1.4-5.4h0c-.07,1.81-.15,4-.25,5.91l-.31,5.58h-2.37l.93-13.87h3.33l1.82,5.57c.49,1.63.92,3.28,1.27,4.82H254c.37-1.5.85-3.21,1.38-4.84l1.92-5.55h3.29l.8,13.87h-2.47Z"/><path class="cls-1" d="M271.38,65.26a13,13,0,0,0,.17,2.41h-2.29l-.18-1.11H269a3.68,3.68,0,0,1-3,1.33,3,3,0,0,1-3.15-3c0-2.51,2.25-3.81,6-3.79V61c0-.66-.27-1.75-2-1.75a5.33,5.33,0,0,0-2.69.74l-.5-1.65a7.3,7.3,0,0,1,3.63-.88c3.21,0,4.13,2,4.13,4.24Zm-2.47-2.49c-1.79,0-3.5.35-3.5,1.87a1.33,1.33,0,0,0,1.45,1.44,2.07,2.07,0,0,0,2-1.38,1.72,1.72,0,0,0,.06-.55Z"/><path class="cls-1" d="M281.12,67.36a7.33,7.33,0,0,1-2.84.51,4.83,4.83,0,0,1-5.17-5.12c0-3,2.06-5.33,5.58-5.33a6.74,6.74,0,0,1,2.45.45l-.46,1.91a4.21,4.21,0,0,0-1.91-.39,3.25,3.25,0,0,0,0,6.49,5.2,5.2,0,0,0,2-.39Z"/><path class="cls-1" d="M282.68,53h2.53v6h0a3.36,3.36,0,0,1,1.26-1.13,3.53,3.53,0,0,1,1.75-.45c1.71,0,3.5,1.13,3.5,4.34v5.91h-2.54V62c0-1.44-.53-2.55-1.93-2.55a2.08,2.08,0,0,0-2,1.42,2.06,2.06,0,0,0-.11.76v6h-2.53Z"/><path class="cls-1" d="M295.4,56.2a1.37,1.37,0,1,1,1.44-1.35,1.34,1.34,0,0,1-1.44,1.35Zm-1.26,11.47v-10h2.54v10Z"/><path class="cls-1" d="M299.1,60.63c0-1.15,0-2.12-.08-3h2.2l.13,1.51h.06a3.68,3.68,0,0,1,3.21-1.73c1.75,0,3.56,1.13,3.56,4.3v6h-2.53V62c0-1.44-.54-2.53-1.92-2.53a2.11,2.11,0,0,0-2,1.48,2.13,2.13,0,0,0-.13.8v5.91H299.1Z"/><path class="cls-1" d="M312.36,63.37c.06,1.81,1.48,2.59,3.08,2.59a8.23,8.23,0,0,0,2.78-.45l.37,1.73a9,9,0,0,1-3.5.63c-3.25,0-5.16-2-5.16-5.06,0-2.78,1.68-5.39,4.9-5.39s4.32,2.67,4.32,4.88a6.47,6.47,0,0,1-.08,1.07Zm4.4-1.77a2.15,2.15,0,0,0-2.08-2.45,2.47,2.47,0,0,0-2.32,2.45Z"/><path class="cls-1" d="M320.88,60.88c0-1.36,0-2.35-.09-3.24H323l.11,1.9h.06a3,3,0,0,1,2.76-2.12,2.68,2.68,0,0,1,.59.06v2.37a4,4,0,0,0-.76-.07,2.24,2.24,0,0,0-2.26,1.92,4.42,4.42,0,0,0-.06.76v5.21h-2.
53Z"/><path class="cls-1" d="M330,57.64,331.74,63c.21.61.43,1.37.58,1.93h.06c.14-.56.33-1.32.53-2l1.57-5.36h2.7l-2.52,6.84c-1.37,3.74-2.3,5.41-3.47,6.44a5.35,5.35,0,0,1-2.66,1.27L328,70.07a4.28,4.28,0,0,0,1.46-.7,4.39,4.39,0,0,0,1.4-1.58,1.25,1.25,0,0,0,.14-.45,1.34,1.34,0,0,0-.12-.5l-3.69-9.2Z"/><path class="cls-1" d="M147.28,96,143.4,84.11h1.66L146.91,90c.51,1.61,1,3.05,1.27,4.45h0c.34-1.38.83-2.88,1.36-4.43l2-5.87h1.64L149,96Z"/><path class="cls-1" d="M156.05,84.11V96h-1.54V84.11Z"/><path class="cls-1" d="M161,85.41h-3.61v-1.3h8.8v1.3h-3.63V96H161Z"/><path class="cls-1" d="M174.76,94.12a5.37,5.37,0,0,0,2.75.78c1.57,0,2.49-.83,2.49-2s-.64-1.74-2.24-2.36c-1.94-.69-3.14-1.69-3.14-3.37,0-1.85,1.53-3.22,3.84-3.22a5.41,5.41,0,0,1,2.63.58l-.42,1.25a4.77,4.77,0,0,0-2.26-.56c-1.62,0-2.24,1-2.24,1.78,0,1.11.73,1.65,2.36,2.29,2,.77,3,1.74,3,3.49s-1.36,3.42-4.16,3.42a6.1,6.1,0,0,1-3-.76Z"/><path class="cls-1" d="M185.43,85v2.45h2.22v1.18h-2.22v4.6c0,1.06.3,1.66,1.17,1.66a3.2,3.2,0,0,0,.9-.11l.07,1.17a3.91,3.91,0,0,1-1.38.21,2.19,2.19,0,0,1-1.68-.65,3.22,3.22,0,0,1-.59-2.22V88.64h-1.33V87.46h1.33v-2Z"/><path class="cls-1" d="M196.54,93.67c0,.88,0,1.65.07,2.32h-1.37l-.09-1.39h0a3.19,3.19,0,0,1-2.82,1.59c-1.34,0-2.94-.74-2.94-3.74v-5h1.55v4.72c0,1.63.49,2.72,1.9,2.72A2.18,2.18,0,0,0,195,92.7V87.46h1.55Z"/><path class="cls-1" d="M206.49,83.48V93.79c0,.76,0,1.62.07,2.2h-1.39l-.07-1.48h0a3.15,3.15,0,0,1-2.91,1.68c-2.06,0-3.64-1.75-3.64-4.34,0-2.84,1.74-4.58,3.82-4.58a2.82,2.82,0,0,1,2.57,1.3h0V83.48Zm-1.55,7.45a2.94,2.94,0,0,0-.07-.65,2.29,2.29,0,0,0-2.24-1.8c-1.6,0-2.56,1.41-2.56,3.3,0,1.73.85,3.16,2.53,3.16a2.33,2.33,0,0,0,2.27-1.86,2.81,2.81,0,0,0,.07-.67Z"/><path class="cls-1" d="M209.93,92a2.74,2.74,0,0,0,2.93,3,5.55,5.55,0,0,0,2.36-.44l.27,1.11a6.87,6.87,0,0,1-2.84.53,4,4,0,0,1-4.2-4.3c0-2.58,1.52-4.6,4-4.6,2.78,0,3.52,2.45,3.52,4a5.59,5.59,0,0,1,0,.72Zm4.55-1.11a2.2,2.2,0,0,0-2.15-2.52A2.57,2.57,0,0,0,210,90.9Z"/><path class="cls-1" d="M217.91,89.77c0-.88,0-1.6-.07-2.31h1.37l.09,1.41h0a3.16,3.16,0,0,1,2.83-1.6c1.18,0,3,.7,3,3.63V96h-1.55V91.08c0-1.38-.51-2.53-2-2.53a2.26,2.26,0,0,0-2.18,2.31V96h-1.55Z"/><path class="cls-1" d="M229.5,85v2.45h2.22v1.18H229.5v4.6c0,1.06.3,1.66,1.16,1.66a3.15,3.15,0,0,0,.9-.11l.07,1.17a3.91,3.91,0,0,1-1.38.21,2.15,2.15,0,0,1-1.67-.65,3.17,3.17,0,0,1-.6-2.22V88.64h-1.32V87.46H228v-2Z"/><path class="cls-1" d="M245.56,95.61a7.64,7.64,0,0,1-3.14.56c-3.35,0-5.87-2.12-5.87-6a5.91,5.91,0,0,1,6.21-6.24,6.26,6.26,0,0,1,2.82.53l-.37,1.25a5.46,5.46,0,0,0-2.4-.5c-2.78,0-4.64,1.79-4.64,4.9,0,2.91,1.68,4.78,4.57,4.78a6.08,6.08,0,0,0,2.5-.49Z"/><path class="cls-1" d="M247.44,83.48H249V88.8h0a2.91,2.91,0,0,1,1.11-1.09,3.16,3.16,0,0,1,1.59-.44c1.15,0,3,.7,3,3.65V96h-1.55v-4.9c0-1.37-.51-2.54-2-2.54a2.24,2.24,0,0,0-2.08,1.55,1.92,1.92,0,0,0-.1.75V96h-1.55Z"/><path class="cls-1" d="M262,96l-.12-1.07h-.06a3.17,3.17,0,0,1-2.61,1.27,2.43,2.43,0,0,1-2.6-2.45c0-2.07,1.83-3.19,5.13-3.18v-.17a1.76,1.76,0,0,0-1.94-2,4.28,4.28,0,0,0-2.23.64l-.35-1a5.4,5.4,0,0,1,2.81-.75c2.61,0,3.24,1.78,3.24,3.49V94a12.57,12.57,0,0,0,.14,2Zm-.23-4.35c-1.69,0-3.61.26-3.61,1.92A1.37,1.37,0,0,0,259.57,95a2.11,2.11,0,0,0,2.06-1.43,1.37,1.37,0,0,0,.09-.49Z"/><path class="cls-1" d="M265.73,90.25c0-1.1,0-2-.07-2.79h1.39l.07,1.46h0a3.34,3.34,0,0,1,3-1.65c2.06,0,3.61,1.74,3.61,4.33,0,3.07-1.87,4.59-3.88,4.59a3,3,0,0,1-2.62-1.34h0v4.63h-1.53Zm1.53,2.27a4.18,4.18,0,0,0,.07.64A2.4,2.4,0,0,0,269.66,95c1.64,0,2.59-1.34,2.59-3.3,0-1.71-.9-3.17-2.54-3.17a2.47,2.47,0,0,0-2.34,1.92,2.77,2.77,0,0,0-.11.64Z"/><path class="cls-1" d="M277.63,85v2.45h2.23v1.18h-2.23v4.6c0,1.06.3,1.66,1.17,1.66a3.2,3.2,0,0,0,.9-.11l.07,1.17a3.91,3.91,0,0,1-1.38.21,2.15,2.15,0,0,1-1.67-.65,3.17,3.17,0,0,1-.6-2.22V88.64h-1.33V87.46h1.33v-2Z"/><path class="cls-1" d="M282.36,92a2.74,2.74,0,0,0,2.93,3,5.55,5.55,0,0,0,2.36-.44l.26,1.11a6.81,6.81,0,0,1-2.83.53,4,4,0,0,1-4.2-4.3c0-2.58,1.52-4.6,4-4.6,2.79,0,3.53,2.45,3.53,4,0,.31,0,.56-.05.72Zm4.55-1.11a2.2,2.2,0,0,0-2.15-2.52,2.56,2.56,0,0,0-2.38,2.52Z"/><path class="cls-1" d="M290.34,90.12c0-1,0-1.87-.08-2.66h1.36l.06,1.68h.06a2.57,2.57,0,0,1,2.37-1.87,1.52,1.52,0,0,1,.44,0v1.46a2.73,2.73,0,0,0-.53,0,2.18,2.18,0,0,0-2.08,2,3.93,3.93,0,0,0-.07.73V96h-1.53Z"/></g></g></svg>