<svg width="246" height="310" viewBox="0 0 246 310" fill="none" xmlns="http://www.w3.org/2000/svg">
<g opacity="0.8">
<g opacity="0.2">
<path opacity="0.5" d="M240.221 11.6027C243.413 11.6027 246 9.01277 246 5.81799C246 2.62321 243.413 0.0333252 240.221 0.0333252C237.03 0.0333252 234.443 2.62321 234.443 5.81799C234.443 9.01277 237.03 11.6027 240.221 11.6027Z" fill="#1A68A1"/>
<path opacity="0.5" d="M240.221 61.3242C243.413 61.3242 246 58.7343 246 55.5395C246 52.3448 243.413 49.7549 240.221 49.7549C237.03 49.7549 234.443 52.3448 234.443 55.5395C234.443 58.7343 237.03 61.3242 240.221 61.3242Z" fill="#1A68A1"/>
<path opacity="0.5" d="M240.221 111.079C243.413 111.079 246 108.489 246 105.294C246 102.1 243.413 99.5097 240.221 99.5097C237.03 99.5097 234.443 102.1 234.443 105.294C234.443 108.489 237.03 111.079 240.221 111.079Z" fill="#1A68A1"/>
<path opacity="0.5" d="M240.221 160.802C243.413 160.802 246 158.212 246 155.017C246 151.823 243.413 149.233 240.221 149.233C237.03 149.233 234.443 151.823 234.443 155.017C234.443 158.212 237.03 160.802 240.221 160.802Z" fill="#1A68A1"/>
<path opacity="0.5" d="M240.221 210.555C243.413 210.555 246 207.965 246 204.771C246 201.576 243.413 198.986 240.221 198.986C237.03 198.986 234.443 201.576 234.443 204.771C234.443 207.965 237.03 210.555 240.221 210.555Z" fill="#1A68A1"/>
<path opacity="0.5" d="M240.221 260.278C243.413 260.278 246 257.689 246 254.494C246 251.299 243.413 248.709 240.221 248.709C237.03 248.709 234.443 251.299 234.443 254.494C234.443 257.689 237.03 260.278 240.221 260.278Z" fill="#1A68A1"/>
<path opacity="0.5" d="M240.221 310C237.04 310 234.443 307.4 234.443 304.215C234.443 301.031 237.04 298.431 240.221 298.431C243.403 298.431 246 301.031 246 304.215C246 307.433 243.403 310 240.221 310Z" fill="#1A68A1"/>
<path opacity="0.5" d="M190.553 11.5693C187.372 11.5693 184.775 8.96948 184.775 5.78467C184.775 2.59985 187.372 0 190.553 0C193.735 0 196.332 2.59985 196.332 5.78467C196.299 9.00198 193.735 11.5693 190.553 11.5693Z" fill="#1A68A1"/>
<path opacity="0.5" d="M190.553 61.3242C187.372 61.3242 184.775 58.7244 184.775 55.5395C184.775 52.3547 187.372 49.7549 190.553 49.7549C193.735 49.7549 196.332 52.3547 196.332 55.5395C196.299 58.7244 193.735 61.3242 190.553 61.3242Z" fill="#1A68A1"/>
<path opacity="0.5" d="M190.553 111.047C187.372 111.047 184.775 108.447 184.775 105.263C184.775 102.078 187.372 99.478 190.553 99.478C193.735 99.478 196.332 102.078 196.332 105.263C196.299 108.48 193.735 111.047 190.553 111.047Z" fill="#1A68A1"/>
<path opacity="0.5" d="M190.553 160.802C187.372 160.802 184.775 158.202 184.775 155.017C184.775 151.833 187.372 149.233 190.553 149.233C193.735 149.233 196.332 151.833 196.332 155.017C196.299 158.202 193.735 160.802 190.553 160.802Z" fill="#1A68A1"/>
<path opacity="0.5" d="M190.553 210.524C187.372 210.524 184.775 207.924 184.775 204.739C184.775 201.554 187.372 198.954 190.553 198.954C193.735 198.954 196.332 201.554 196.332 204.739C196.332 207.924 193.735 210.524 190.553 210.524Z" fill="#1A68A1"/>
<path opacity="0.5" d="M190.553 260.278C187.372 260.278 184.775 257.679 184.775 254.494C184.775 251.309 187.372 248.709 190.553 248.709C193.735 248.709 196.332 251.309 196.332 254.494C196.332 257.679 193.735 260.278 190.553 260.278Z" fill="#1A68A1"/>
<path opacity="0.5" d="M190.553 310C187.372 310 184.775 307.4 184.775 304.215C184.775 301.031 187.372 298.431 190.553 298.431C193.735 298.431 196.332 301.031 196.332 304.215C196.299 307.433 193.735 310 190.553 310Z" fill="#1A68A1"/>
<path opacity="0.5" d="M140.85 11.6027C144.041 11.6027 146.628 9.01277 146.628 5.81799C146.628 2.62321 144.041 0.0333252 140.85 0.0333252C137.659 0.0333252 135.072 2.62321 135.072 5.81799C135.072 9.01277 137.659 11.6027 140.85 11.6027Z" fill="#1A68A1"/>
<path opacity="0.5" d="M140.85 61.3242C144.041 61.3242 146.628 58.7343 146.628 55.5395C146.628 52.3448 144.041 49.7549 140.85 49.7549C137.659 49.7549 135.072 52.3448 135.072 55.5395C135.072 58.7343 137.659 61.3242 140.85 61.3242Z" fill="#1A68A1"/>
<path opacity="0.5" d="M140.85 111.079C144.041 111.079 146.628 108.489 146.628 105.294C146.628 102.1 144.041 99.5097 140.85 99.5097C137.659 99.5097 135.072 102.1 135.072 105.294C135.072 108.489 137.659 111.079 140.85 111.079Z" fill="#1A68A1"/>
<path opacity="0.5" d="M140.85 160.802C144.041 160.802 146.628 158.212 146.628 155.017C146.628 151.823 144.041 149.233 140.85 149.233C137.659 149.233 135.072 151.823 135.072 155.017C135.072 158.212 137.659 160.802 140.85 160.802Z" fill="#1A68A1"/>
<path opacity="0.5" d="M140.85 210.555C144.041 210.555 146.628 207.965 146.628 204.771C146.628 201.576 144.041 198.986 140.85 198.986C137.659 198.986 135.072 201.576 135.072 204.771C135.072 207.965 137.659 210.555 140.85 210.555Z" fill="#1A68A1"/>
<path opacity="0.5" d="M140.85 260.278C144.041 260.278 146.628 257.689 146.628 254.494C146.628 251.299 144.041 248.709 140.85 248.709C137.659 248.709 135.072 251.299 135.072 254.494C135.072 257.689 137.659 260.278 140.85 260.278Z" fill="#1A68A1"/>
<path opacity="0.5" d="M140.85 310C137.669 310 135.072 307.4 135.072 304.215C135.072 301.031 137.669 298.431 140.85 298.431C144.031 298.431 146.628 301.031 146.628 304.215C146.628 307.433 144.031 310 140.85 310Z" fill="#1A68A1"/>
<path opacity="0.5" d="M91.1499 11.6027C94.3413 11.6027 96.9285 9.01277 96.9285 5.81799C96.9285 2.62321 94.3413 0.0333252 91.1499 0.0333252C87.9585 0.0333252 85.3715 2.62321 85.3715 5.81799C85.3715 9.01277 87.9585 11.6027 91.1499 11.6027Z" fill="#1A68A1"/>
<path opacity="0.5" d="M91.1499 61.3242C94.3413 61.3242 96.9285 58.7343 96.9285 55.5395C96.9285 52.3448 94.3413 49.7549 91.1499 49.7549C87.9585 49.7549 85.3715 52.3448 85.3715 55.5395C85.3715 58.7343 87.9585 61.3242 91.1499 61.3242Z" fill="#1A68A1"/>
<path opacity="0.5" d="M91.1499 111.079C94.3413 111.079 96.9285 108.489 96.9285 105.294C96.9285 102.1 94.3413 99.5097 91.1499 99.5097C87.9585 99.5097 85.3715 102.1 85.3715 105.294C85.3715 108.489 87.9585 111.079 91.1499 111.079Z" fill="#1A68A1"/>
<path opacity="0.5" d="M91.1499 160.802C94.3413 160.802 96.9285 158.212 96.9285 155.017C96.9285 151.823 94.3413 149.233 91.1499 149.233C87.9585 149.233 85.3715 151.823 85.3715 155.017C85.3715 158.212 87.9585 160.802 91.1499 160.802Z" fill="#1A68A1"/>
<path opacity="0.5" d="M91.1499 210.555C94.3413 210.555 96.9285 207.965 96.9285 204.771C96.9285 201.576 94.3413 198.986 91.1499 198.986C87.9585 198.986 85.3715 201.576 85.3715 204.771C85.3715 207.965 87.9585 210.555 91.1499 210.555Z" fill="#1A68A1"/>
<path opacity="0.5" d="M91.1499 260.278C94.3413 260.278 96.9285 257.689 96.9285 254.494C96.9285 251.299 94.3413 248.709 91.1499 248.709C87.9585 248.709 85.3715 251.299 85.3715 254.494C85.3715 257.689 87.9585 260.278 91.1499 260.278Z" fill="#1A68A1"/>
<path opacity="0.5" d="M91.1499 310C87.9685 310 85.3715 307.4 85.3715 304.215C85.3715 301.031 87.9685 298.431 91.1499 298.431C94.3313 298.431 96.9285 301.031 96.9285 304.215C96.9285 307.433 94.3638 310 91.1499 310Z" fill="#1A68A1"/>
<path opacity="0.5" d="M41.4786 11.6027C44.67 11.6027 47.257 9.01277 47.257 5.81799C47.257 2.62321 44.67 0.0333252 41.4786 0.0333252C38.2872 0.0333252 35.7 2.62321 35.7 5.81799C35.7 9.01277 38.2872 11.6027 41.4786 11.6027Z" fill="#1A68A1"/>
<path opacity="0.5" d="M41.4786 61.3242C44.67 61.3242 47.257 58.7343 47.257 55.5395C47.257 52.3448 44.67 49.7549 41.4786 49.7549C38.2872 49.7549 35.7 52.3448 35.7 55.5395C35.7 58.7343 38.2872 61.3242 41.4786 61.3242Z" fill="#1A68A1"/>
<path opacity="0.5" d="M41.4786 111.079C44.67 111.079 47.257 108.489 47.257 105.294C47.257 102.1 44.67 99.5097 41.4786 99.5097C38.2872 99.5097 35.7 102.1 35.7 105.294C35.7 108.489 38.2872 111.079 41.4786 111.079Z" fill="#1A68A1"/>
<path opacity="0.5" d="M41.4786 160.802C44.67 160.802 47.257 158.212 47.257 155.017C47.257 151.823 44.67 149.233 41.4786 149.233C38.2872 149.233 35.7 151.823 35.7 155.017C35.7 158.212 38.2872 160.802 41.4786 160.802Z" fill="#1A68A1"/>
<path opacity="0.5" d="M41.4786 210.555C44.67 210.555 47.257 207.965 47.257 204.771C47.257 201.576 44.67 198.986 41.4786 198.986C38.2872 198.986 35.7 201.576 35.7 204.771C35.7 207.965 38.2872 210.555 41.4786 210.555Z" fill="#1A68A1"/>
<path opacity="0.5" d="M41.4786 260.278C44.67 260.278 47.257 257.689 47.257 254.494C47.257 251.299 44.67 248.709 41.4786 248.709C38.2872 248.709 35.7 251.299 35.7 254.494C35.7 257.689 38.2872 260.278 41.4786 260.278Z" fill="#1A68A1"/>
<path opacity="0.5" d="M41.4786 310C38.2972 310 35.7 307.4 35.7 304.215C35.7 301.031 38.2972 298.431 41.4786 298.431C44.66 298.431 47.257 301.031 47.257 304.215C47.257 307.433 44.66 310 41.4786 310Z" fill="#1A68A1"/>
</g>
</g>
</svg>
