<svg width="20" height="20" viewBox="0 0 20 20" fill="none" xmlns="http://www.w3.org/2000/svg">
<path d="M9.99997 5.99399C7.78317 5.99399 5.99411 7.78305 5.99411 9.99985C5.99411 12.2166 7.78317 14.0057 9.99997 14.0057C12.2168 14.0057 14.0058 12.2166 14.0058 9.99985C14.0058 7.78305 12.2168 5.99399 9.99997 5.99399ZM9.99997 12.6034C8.56638 12.6034 7.39646 11.4334 7.39646 9.99985C7.39646 8.56625 8.56638 7.39633 9.99997 7.39633C11.4336 7.39633 12.6035 8.56625 12.6035 9.99985C12.6035 11.4334 11.4336 12.6034 9.99997 12.6034ZM14.1699 4.89633C13.6523 4.89633 13.2343 5.3143 13.2343 5.83188C13.2343 6.34946 13.6523 6.76743 14.1699 6.76743C14.6875 6.76743 15.1054 6.35141 15.1054 5.83188C15.1056 5.70898 15.0815 5.58725 15.0345 5.47368C14.9876 5.3601 14.9187 5.25691 14.8318 5.17C14.7449 5.0831 14.6417 5.01419 14.5281 4.96723C14.4145 4.92027 14.2928 4.89618 14.1699 4.89633ZM17.8086 9.99985C17.8086 8.92172 17.8183 7.85336 17.7578 6.77719C17.6972 5.52719 17.4121 4.41782 16.498 3.50375C15.582 2.58774 14.4746 2.30454 13.2246 2.24399C12.1465 2.18344 11.0781 2.19321 10.0019 2.19321C8.9238 2.19321 7.85544 2.18344 6.77927 2.24399C5.52927 2.30454 4.41989 2.58969 3.50583 3.50375C2.58981 4.41977 2.30661 5.52719 2.24606 6.77719C2.18552 7.85532 2.19528 8.92368 2.19528 9.99985C2.19528 11.076 2.18552 12.1463 2.24606 13.2225C2.30661 14.4725 2.59177 15.5819 3.50583 16.4959C4.42185 17.412 5.52927 17.6952 6.77927 17.7557C7.85739 17.8163 8.92575 17.8065 10.0019 17.8065C11.08 17.8065 12.1484 17.8163 13.2246 17.7557C14.4746 17.6952 15.584 17.41 16.498 16.4959C17.414 15.5799 17.6972 14.4725 17.7578 13.2225C17.8203 12.1463 17.8086 11.078 17.8086 9.99985ZM16.0898 14.6053C15.9472 14.9608 15.7754 15.2264 15.5 15.4998C15.2246 15.7752 14.9609 15.9471 14.6054 16.0897C13.5781 16.4979 11.1386 16.4061 9.99997 16.4061C8.8613 16.4061 6.41989 16.4979 5.39255 16.0916C5.03708 15.9491 4.77146 15.7772 4.49802 15.5018C4.22263 15.2264 4.05075 14.9627 3.90817 14.6073C3.50192 13.578 3.59372 11.1385 3.59372 9.99985C3.59372 8.86118 3.50192 6.41977 3.90817 5.39243C4.05075 5.03696 4.22263 4.77133 4.49802 4.4979C4.77341 4.22446 5.03708 4.05063 5.39255 3.90805C6.41989 3.5018 8.8613 3.5936 9.99997 3.5936C11.1386 3.5936 13.5801 3.5018 14.6074 3.90805C14.9629 4.05063 15.2285 4.2225 15.5019 4.4979C15.7773 4.77329 15.9492 5.03696 16.0918 5.39243C16.498 6.41977 16.4062 8.86118 16.4062 9.99985C16.4062 11.1385 16.498 13.578 16.0898 14.6053Z" fill="white"/>
</svg>
