<svg width="139" height="42" viewBox="0 0 139 42" fill="none" xmlns="http://www.w3.org/2000/svg">
<g clip-path="url(#ksl)">
<path d="M5.47585 9.36315L3.478 11.4576V15.2405H0.0561676V0.279934H3.478V7.26866L10.0666 0.279934H13.8923L7.72874 6.94808L14.2536 15.2405H10.2367L5.47585 9.36315ZM15.7889 0.279934H19.232V15.2405H15.7889V0.279934ZM29.8827 15.497C28.3665 15.497 26.9922 15.1693 25.7595 14.5139C24.5409 13.8442 23.5774 12.9252 22.869 11.7568C22.1747 10.5742 21.8276 9.24205 21.8276 7.76023C21.8276 6.27841 22.1747 4.95333 22.869 3.78499C23.5774 2.60239 24.5409 1.68338 25.7595 1.02796C26.9922 0.358299 28.3737 0.023468 29.9039 0.023468C31.1932 0.023468 32.3553 0.251439 33.3895 0.707381C34.4381 1.16332 35.3164 1.81874 36.025 2.67363L33.8146 4.72537C32.8085 3.55702 31.5617 2.97284 30.074 2.97284C29.1529 2.97284 28.3312 3.17943 27.6085 3.59264C26.8859 3.99158 26.3192 4.55439 25.9083 5.28104C25.5115 6.0077 25.3132 6.83409 25.3132 7.76023C25.3132 8.68637 25.5115 9.51275 25.9083 10.2394C26.3192 10.9661 26.8859 11.536 27.6085 11.9492C28.3312 12.3481 29.1529 12.5476 30.074 12.5476C31.5617 12.5476 32.8085 11.9563 33.8146 10.7737L36.025 12.8255C35.3164 13.6946 34.4381 14.3571 33.3895 14.8131C32.3409 15.269 31.172 15.497 29.8827 15.497ZM43.7698 9.36315L41.772 11.4576V15.2405H38.3501V0.279934H41.772V7.26866L48.3606 0.279934H52.1863L46.0227 6.94808L52.5476 15.2405H48.5306L43.7698 9.36315ZM55.1031 15.4115C54.5221 15.4115 54.0332 15.212 53.6366 14.8131C53.2397 14.4141 53.0415 13.9154 53.0415 13.317C53.0415 12.7044 53.2397 12.2128 53.6366 11.8423C54.0332 11.4576 54.5221 11.2653 55.1031 11.2653C55.6838 11.2653 56.1727 11.4576 56.5696 11.8423C56.9662 12.2128 57.1647 12.7044 57.1647 13.317C57.1647 13.9154 56.9662 14.4141 56.5696 14.8131C56.1727 15.212 55.6838 15.4115 55.1031 15.4115ZM70.5526 15.497C69.3768 15.497 68.236 15.3402 67.1308 15.0268C66.0399 14.6991 65.1614 14.2788 64.4953 13.7658L65.6643 11.1584C66.3019 11.6286 67.0601 12.0062 67.9384 12.2911C68.817 12.5761 69.6956 12.7186 70.5739 12.7186C71.5516 12.7186 72.2742 12.5761 72.7418 12.2911C73.2093 11.9919 73.4431 11.6001 73.4431 11.1157C73.4431 10.7595 73.3015 10.4674 73.0181 10.2394C72.7489 9.99718 72.3948 9.80483 71.9554 9.66236C71.5303 9.51989 70.9495 9.36315 70.2126 9.19217C69.0792 8.92146 68.151 8.65073 67.4283 8.38002C66.7057 8.10932 66.0825 7.67474 65.558 7.07631C65.0479 6.47789 64.7929 5.67998 64.7929 4.68262C64.7929 3.81349 65.0267 3.02982 65.4943 2.33167C65.9618 1.61926 66.6632 1.05646 67.5984 0.643264C68.5479 0.230066 69.7025 0.023468 71.0627 0.023468C72.0122 0.023468 72.9402 0.137453 73.8469 0.365424C74.7539 0.593394 75.5472 0.921103 76.2274 1.34855L75.1647 3.97734C73.7904 3.1937 72.416 2.80186 71.0415 2.80186C70.0781 2.80186 69.3624 2.9586 68.8948 3.27205C68.4416 3.5855 68.2147 3.99871 68.2147 4.51164C68.2147 5.02458 68.4769 5.40928 69.0011 5.66575C69.5396 5.90797 70.3544 6.15017 71.4453 6.3924C72.5789 6.66311 73.5069 6.93384 74.2295 7.20455C74.9521 7.47525 75.5685 7.9027 76.0786 8.48688C76.603 9.07107 76.865 9.86184 76.865 10.8592C76.865 11.7141 76.6243 12.4977 76.1423 13.2102C75.6748 13.9083 74.9665 14.464 74.017 14.8772C73.0677 15.2904 71.9129 15.497 70.5526 15.497ZM82.092 3.10107H77.3312V0.279934H90.296V3.10107H85.5351V15.2405H82.092V3.10107ZM101.199 12.0347H94.2916L92.9739 15.2405H89.4458L96.077 0.279934H99.4775L106.13 15.2405H102.517L101.199 12.0347ZM100.115 9.40589L97.756 3.67812L95.3968 9.40589H100.115ZM117.153 15.2405L114.283 11.0729H114.113H111.117V15.2405H107.673V0.279934H114.113C115.431 0.279934 116.572 0.50078 117.535 0.942475C118.513 1.38417 119.264 2.01109 119.788 2.82323C120.312 3.63538 120.574 4.59713 120.574 5.70849C120.574 6.81985 120.305 7.7816 119.767 8.59375C119.243 9.39165 118.492 10.0043 117.514 10.4318L120.851 15.2405H117.153ZM117.089 5.70849C117.089 4.86784 116.82 4.22667 116.281 3.78499C115.743 3.32904 114.957 3.10107 113.922 3.10107H111.117V8.31591H113.922C114.957 8.31591 115.743 8.08794 116.281 7.63199C116.82 7.17604 117.089 6.53487 117.089 5.70849ZM126.177 3.10107H121.416V0.279934H134.381V3.10107H129.62V15.2405H126.177V3.10107ZM136.548 15.4115C135.967 15.4115 135.478 15.212 135.081 14.8131C134.684 14.4141 134.486 13.9154 134.486 13.317C134.486 12.7044 134.684 12.2128 135.081 11.8423C135.478 11.4576 135.967 11.2653 136.548 11.2653C137.129 11.2653 137.618 11.4576 138.014 11.8423C138.411 12.2128 138.609 12.7044 138.609 13.317C138.609 13.9154 138.411 14.4141 138.014 14.8131C137.618 15.212 137.129 15.4115 136.548 15.4115ZM29.7158 26.461H33.1589V38.6004H40.619V41.4215H29.7158V26.461ZM54.0622 38.6431V41.4215H42.5427V26.461H53.7859V29.2393H45.9645V32.4879H52.872V35.1808H45.9645V38.6431H54.0622ZM66.5997 38.2157H59.6923L58.3745 41.4215H54.8464L61.4776 26.461H64.8782L71.5306 41.4215H67.9174L66.5997 38.2157ZM65.5158 35.5869L63.1566 29.8591L60.7975 35.5869H65.5158ZM82.5532 41.4215L79.684 37.2539H79.514H76.5172V41.4215H73.0741V26.461H79.514C80.8317 26.461 81.9722 26.6818 82.9358 27.1235C83.9135 27.5651 84.6645 28.1921 85.1887 29.0043C85.7129 29.8164 85.9751 30.7782 85.9751 31.8895C85.9751 33.0009 85.706 33.9626 85.1674 34.7748C84.6433 35.5728 83.8922 36.1853 82.9146 36.6128L86.2514 41.4215H82.5532ZM82.4895 31.8895C82.4895 31.0488 82.2204 30.4076 81.6818 29.966C81.1433 29.51 80.3569 29.2821 79.3227 29.2821H76.5172V34.4969H79.3227C80.3569 34.4969 81.1433 34.269 81.6818 33.813C82.2204 33.357 82.4895 32.7158 82.4895 31.8895ZM102.348 26.461V41.4215H99.5211L92.1036 32.3383V41.4215H88.703V26.461H91.551L98.9473 35.5442V26.461H102.348ZM106.888 41.5925C106.307 41.5925 105.818 41.393 105.422 40.9941C105.025 40.5952 104.827 40.0965 104.827 39.498C104.827 38.8855 105.025 38.3939 105.422 38.0233C105.818 37.6386 106.307 37.4463 106.888 37.4463C107.469 37.4463 107.958 37.6386 108.355 38.0233C108.751 38.3939 108.95 38.8855 108.95 39.498C108.95 40.0965 108.751 40.5952 108.355 40.9941C107.958 41.393 107.469 41.5925 106.888 41.5925Z" fill="black"/>
</g>
<defs>
<clipPath id="ksl">
<rect width="138.68" height="41.6759" fill="white" transform="translate(0 0.0127869)"/>
</clipPath>
</defs>
</svg>
