<svg width="300" height="249" viewBox="0 0 300 249" fill="none" xmlns="http://www.w3.org/2000/svg">
<path d="M298.682 122.092C298.137 121.673 297.499 121.393 296.822 121.275C296.11 121.111 295.382 121.008 294.657 120.894L285.274 119.539C284.327 119.363 283.361 119.312 282.401 119.386C281.919 119.426 281.45 119.561 281.021 119.784C280.591 120.007 280.211 120.313 279.901 120.684C279.621 121.029 279.468 121.46 279.466 121.905C279.518 122.353 279.664 122.784 279.893 123.172C279.984 123.353 280.061 123.541 280.125 123.733C280.215 124.164 280.327 124.591 280.461 125.011C280.502 125.102 280.556 125.187 280.621 125.263C280.623 125.285 280.623 125.306 280.621 125.328C280.518 125.855 280.85 126.404 280.701 126.912C280.571 127.347 280.148 127.61 279.881 127.972C279.704 128.23 279.605 128.533 279.598 128.846C279.591 129.159 279.677 129.467 279.843 129.732C280.129 130.174 280.648 130.476 280.796 130.983C280.991 131.651 280.465 132.296 279.996 132.811C279.133 133.759 278.336 134.765 277.61 135.822C277.406 136.082 277.274 136.391 277.229 136.719C277.187 137.383 277.823 137.966 277.713 138.627C277.625 139.146 277.118 139.462 276.68 139.771C275.06 140.84 273.761 142.557 273.631 144.499C273.215 141.409 271.936 138.499 269.942 136.104C269.397 135.448 268.799 134.788 268.574 133.956C268.49 133.624 268.475 133.269 268.36 132.948C267.979 131.937 266.767 131.502 266.237 130.571C265.856 129.915 265.856 129.071 265.384 128.495C264.911 127.919 264.168 127.789 263.76 127.232C263.556 126.855 263.383 126.462 263.242 126.057C263.071 125.727 262.83 125.438 262.537 125.21C262.481 125.165 262.422 125.123 262.361 125.084C262.425 125.027 262.475 124.958 262.51 124.88C262.545 124.803 262.563 124.718 262.563 124.633C262.563 124.187 262.121 123.893 261.736 123.672C261.241 123.389 260.757 123.084 260.284 122.767C260.8 122.527 261.247 122.161 261.584 121.703C262.007 121.019 262.182 120.211 262.079 119.413C262.053 118.77 261.813 118.153 261.397 117.662C261.157 117.406 260.856 117.223 260.604 116.982C259.953 116.345 259.732 115.403 259.461 114.533C259.103 113.388 258.543 112.186 257.498 111.579C256.995 111.285 256.408 111.148 255.917 110.839C255.425 110.53 255.013 109.946 255.185 109.385C255.299 109.003 255.654 108.74 255.894 108.416C256.18 107.996 256.29 107.48 256.2 106.98C256.109 106.48 255.825 106.036 255.41 105.744C255.128 105.565 254.781 105.409 254.724 105.08C254.503 105.023 254.303 104.905 254.147 104.738C253.99 104.572 253.884 104.366 253.84 104.142C253.754 103.693 253.754 103.232 253.84 102.783C253.939 102.073 254.037 101.366 254.133 100.661C254.301 100.731 254.481 100.767 254.663 100.767C254.845 100.767 255.025 100.731 255.193 100.661C255.522 101.197 255.905 101.699 256.336 102.157C257.496 103.53 258.4 105.1 259.004 106.794C259.221 107.404 259.442 108.087 260.006 108.412C260.2 108.522 260.422 108.58 260.612 108.698C260.847 108.862 261.049 109.069 261.207 109.308C261.664 109.915 262.121 110.518 262.575 111.125L262.598 111.216C262.61 111.27 262.631 111.322 262.659 111.369C262.743 111.464 262.86 111.524 262.986 111.537C264.389 111.861 265.963 112.159 267.179 111.392C268.276 110.705 268.757 109.347 269.687 108.438C270.346 107.794 271.28 107.294 271.466 106.385C271.244 106.317 271.025 106.236 270.811 106.145C271.001 105.954 271.192 105.733 271.451 105.481C271.828 105.112 272.167 104.707 272.465 104.271C272.787 103.734 273.043 103.16 273.227 102.562C273.961 100.466 274.698 98.3681 275.438 96.2693C275.788 95.2771 276.139 94.2774 276.581 93.3119C277.038 92.2663 277.58 91.2627 278.079 90.2362C279.367 87.5666 280.361 84.7645 281.044 81.8793C281.165 81.4856 281.205 81.0716 281.162 80.662C281.055 80.0018 280.556 79.4828 280.08 79.0135C279.601 78.4942 279.055 78.0412 278.456 77.6664C278.156 77.4793 277.821 77.3539 277.471 77.2976C277.122 77.2412 276.765 77.2551 276.421 77.3383C275.445 77.6245 274.832 78.6242 274.607 79.6278C274.382 80.6314 274.466 81.6656 274.37 82.6806C274.233 84.1498 273.73 85.5693 273.608 87.0423C273.543 87.8932 273.608 88.7556 273.505 89.6066C273.318 90.7203 272.93 91.7907 272.362 92.7662C271.126 95.0927 269.453 97.1581 267.434 98.8489C267.202 99.0435 266.962 99.2305 266.733 99.4404C266.733 99.2763 266.76 99.1084 266.782 98.9443C266.616 98.9875 266.455 99.045 266.298 99.116C266.318 98.9233 266.298 98.7287 266.241 98.5436C265.936 97.6316 264.58 97.3988 264.336 96.4715C264.295 96.2422 264.273 96.0099 264.271 95.777C264.191 94.9642 263.638 94.2774 263.448 93.4875C263.272 92.7586 263.406 91.9611 263.067 91.2856C262.777 90.8633 262.437 90.4787 262.053 90.1408C261.595 89.6171 261.265 88.994 261.088 88.3206C261.039 88.1336 260.993 87.939 260.94 87.7521C260.998 87.3286 260.951 86.8975 260.803 86.4966C260.456 85.6342 259.56 85.0809 259.236 84.207C258.985 83.5278 259.095 82.6806 258.619 82.154C258.366 81.9024 258.056 81.7153 257.716 81.6083C255.971 80.9282 254.141 80.4953 252.277 80.3223C251.233 80.227 250.082 80.1735 249.335 79.437C248.462 78.5823 248.42 77.0444 247.399 76.3843C246.499 75.8004 245.226 76.2316 244.529 77.0521C244.424 77.1727 244.327 77.3002 244.239 77.4337C244.112 76.9222 244.085 76.3909 244.159 75.8691C244.159 75.7394 244.186 75.6058 244.197 75.4875C245.918 74.9245 247.383 73.7665 248.329 72.221C248.329 72.221 248.329 72.221 248.329 72.2439L248.374 72.3622C248.485 72.6408 248.66 72.9079 248.919 72.9384C249.092 72.9364 249.258 72.8758 249.392 72.7667C249.622 72.6067 249.834 72.4225 250.025 72.2172C250.121 72.1104 250.213 71.9997 250.299 71.8852C250.475 71.6469 250.625 71.3912 250.749 71.122C250.938 70.7171 251.066 70.2863 251.13 69.8437C251.198 69.401 251.206 68.9469 251.282 68.5043C251.353 68.1616 251.446 67.8239 251.561 67.493C251.599 67.3824 251.637 67.2717 251.671 67.161C251.705 67.0504 251.755 66.9016 251.793 66.7794C252.032 65.9946 252.16 65.1804 252.174 64.3601C252.174 64.2227 252.174 64.0854 252.174 63.948C252.16 63.4127 252.04 62.8855 251.82 62.3973C251.6 61.9092 251.285 61.4699 250.894 61.1051C250.238 60.567 249.369 60.3419 248.889 59.613C248.576 59.1246 248.508 58.495 248.325 57.9226C248.127 57.2376 247.742 56.6217 247.212 56.1449C246.683 55.668 246.03 55.3492 245.329 55.2247C244.485 55.132 243.637 55.3654 242.959 55.8772L242.905 55.9192C242.527 56.2081 242.207 56.5654 241.96 56.9724C241.457 56.8335 240.996 56.5712 240.619 56.2092C240.237 55.8543 239.944 55.4078 239.559 55.0644C239.199 54.7346 238.758 54.5074 238.28 54.4067C237.803 54.3061 237.308 54.3355 236.846 54.492C236.37 54.6829 235.946 54.9841 235.608 55.3708C235.271 55.7575 235.03 56.2188 234.906 56.7167C234.696 57.5028 234.734 58.4072 234.296 59.0635C233.957 59.5749 233.4 59.8267 233.011 60.2923C232.77 60.5871 232.605 60.9371 232.531 61.3112C232.485 61.5203 232.463 61.7342 232.466 61.9484C232.466 62.0438 232.466 62.1392 232.489 62.2308C232.489 62.2308 232.489 62.2613 232.489 62.2766C232.503 62.3812 232.524 62.4845 232.554 62.5857C232.662 62.9725 232.857 63.3299 233.122 63.6313C233.374 63.9198 233.688 64.147 234.04 64.2953C234.185 64.3515 234.332 64.3986 234.483 64.4364L234.936 64.5395L235.096 64.5776C234.549 65.6065 234.245 66.7476 234.208 67.9127C234.171 69.0779 234.402 70.2359 234.883 71.2976C234.883 71.4044 234.856 71.5113 234.845 71.6181C234.783 73.1207 234.849 74.6259 235.043 76.1171C235.096 76.7086 235.127 77.3612 234.765 77.8305C234.6 78.0151 234.414 78.1803 234.212 78.3228C234.418 78.0557 234.627 77.7924 234.841 77.5291C234.303 76.9872 233.454 76.9185 232.691 76.9719C231.216 77.0822 229.784 77.5202 228.499 78.2541C227.645 78.7463 226.769 79.3989 225.793 79.2844C225.218 79.2195 224.65 78.9028 224.089 79.0554C223.775 79.1844 223.48 79.3593 223.217 79.5744C223.008 79.7241 222.757 79.8018 222.5 79.7957C221.902 79.0593 220.976 78.5594 220.259 77.9603C219.444 77.2334 218.697 76.4325 218.03 75.5676C216.795 74.0756 215.564 72.5797 214.352 71.0724C213.33 69.8055 212.282 68.4356 212.103 66.8138C212.085 66.6529 212.076 66.4911 212.077 66.3292C212.101 65.5586 212.198 64.792 212.366 64.0396C212.411 63.8579 212.411 63.6679 212.366 63.4863C212.252 63.1047 211.814 62.9635 211.436 62.8795C211.486 62.5857 211.52 62.2842 211.539 61.998C211.753 58.7163 211.52 55.3811 212.214 52.1681C212.477 50.9317 212.907 49.6801 213.795 48.7833C215.187 47.3752 217.515 47.0356 218.582 45.368C219.474 43.979 219.12 42.0138 217.999 40.7888C216.879 39.5639 215.152 39.064 213.51 39.1251C213.049 39.1092 212.593 39.2315 212.202 39.4761C211.837 39.8012 211.563 40.2172 211.41 40.682L209.775 44.6621C209.301 45.6983 208.901 46.7669 208.578 47.8598C208.121 49.5312 208.018 51.2942 207.656 52.9809C207.656 54.2783 206.821 55.8963 206.364 57.0907C205.853 58.4339 205.3 59.7619 204.839 61.1318C204.725 61.4752 204.325 62.4941 204.077 63.4214C203.983 63.476 203.896 63.5413 203.818 63.616C203.619 63.8714 203.438 64.1404 203.277 64.4212C202.93 64.8791 202.366 65.1233 201.985 65.566C201.603 66.0086 201.523 66.8214 202.053 67.0427C202.161 67.079 202.272 67.1033 202.385 67.1153C202.454 67.1211 202.523 67.1326 202.591 67.1496C203.162 67.3099 203.387 68.0311 203.303 68.6264C203.219 69.2217 202.922 69.7712 202.873 70.3665C202.77 71.4197 203.387 72.4004 203.982 73.2857C204.597 74.2454 205.277 75.1621 206.017 76.0294C206.554 76.6323 207.16 77.1742 207.701 77.7542C209.763 79.8759 211.402 82.3563 213.254 84.6611C213.921 85.531 214.678 86.3267 215.514 87.0346C216.06 87.4622 216.632 87.856 217.225 88.2138L220.412 90.2362C220.773 90.5014 221.182 90.6944 221.616 90.8048C221.758 90.8239 221.901 90.8239 222.043 90.8048C222.062 90.9002 222.077 90.9918 222.1 91.0872C222.348 92.087 222.893 92.9952 222.954 94.0141C223.015 95.0329 222.923 96.0747 222.996 97.105C223.064 98.0552 223.274 99.013 223.327 99.9479C223.434 101.749 222.992 103.527 222.565 105.29C221.921 107.87 221.532 110.503 220.278 112.842C219.928 113.487 219.516 114.143 219.516 114.88C219.516 114.968 219.516 115.059 219.539 115.147L218.967 115.471C218.8 115.567 218.632 115.662 218.479 115.761C217.755 116.234 216.982 116.757 216.684 117.574C216.444 118.234 216.555 118.99 216.265 119.631C216.251 119.659 216.236 119.687 216.219 119.715C215.914 120.31 215.308 120.753 215.171 121.405C215.068 121.905 215.267 122.435 215.171 122.932C215.171 122.932 215.171 122.932 215.171 122.951C215.085 123.2 215.016 123.455 214.965 123.714C214.961 123.798 214.969 123.883 214.988 123.966C215.061 124.255 215.221 124.515 215.446 124.71C215.583 124.842 215.732 124.961 215.892 125.065C216.054 125.172 216.222 125.271 216.395 125.362L216.494 125.416C216.639 125.492 216.783 125.565 216.932 125.633L217.031 125.675C217.203 125.752 217.378 125.82 217.553 125.881L217.675 125.919C217.812 125.965 217.953 126.007 218.094 126.042L218.19 126.072L218.277 126.091L218.658 126.171L218.8 126.198C218.967 126.226 219.139 126.249 219.314 126.267H219.466C219.596 126.267 219.722 126.286 219.848 126.29H220.027C220.16 126.29 220.29 126.29 220.408 126.29H220.545C220.724 126.29 220.903 126.263 221.082 126.24H221.14C221.3 126.217 221.46 126.19 221.62 126.156L221.742 126.129C221.89 126.095 222.039 126.061 222.188 126.015L222.268 125.992C222.447 125.939 222.626 125.881 222.801 125.813C223.408 125.563 223.996 125.271 224.562 124.939C224.943 124.729 225.324 124.515 225.705 124.321C225.988 124.178 226.278 124.051 226.574 123.939C227.295 123.631 228.079 123.5 228.861 123.557C229.247 123.61 229.629 123.688 230.004 123.79C230.004 123.832 230.004 123.874 230.004 123.916C230.314 125.748 230.621 127.579 230.923 129.411C231.422 129.051 231.95 128.734 232.501 128.461C232.398 128.737 232.33 129.026 232.299 129.319C232.276 129.547 232.276 129.775 232.299 130.003C232.333 130.365 232.409 130.766 232.192 131.052C232.059 131.227 231.811 131.327 231.739 131.525C231.686 131.728 231.673 131.939 231.7 132.147C231.685 132.384 231.585 132.608 231.418 132.777C231.252 132.947 231.03 133.051 230.793 133.071C230.902 133.378 230.905 133.713 230.801 134.022C230.696 134.33 230.491 134.595 230.218 134.772C230.058 134.849 229.91 134.947 229.776 135.063C229.645 135.231 229.558 135.429 229.52 135.639C229.017 137.528 227.981 139.233 226.536 140.55C225.994 140.976 225.5 141.46 225.061 141.992C224.79 142.405 224.567 142.846 224.394 143.309C223.378 145.797 222.346 148.286 221.3 150.777C220.72 152.17 220.156 153.585 219.973 155.085C219.516 159.199 215.857 162.686 216.543 166.769C216.682 167.789 217.093 168.753 217.732 169.559C218.495 170.479 219.638 171.005 220.781 171.433C223.72 172.577 226.818 173.203 229.905 173.833L234.753 174.829C235.704 175.048 236.67 175.201 237.642 175.287C238.812 175.367 240.013 175.256 241.152 175.554C241.857 175.737 242.532 176.077 243.26 176.115C243.885 176.149 244.655 176.016 245.024 176.527C245.394 177.038 245.108 177.714 245.459 178.168C246.023 178.889 247.399 178.168 248.012 178.847C248.18 179.108 248.308 179.392 248.393 179.69C248.487 179.875 248.616 180.038 248.775 180.171C248.812 180.387 248.827 180.605 248.82 180.824C248.741 181.71 248.557 182.583 248.271 183.426C247.814 184.975 247.358 186.526 246.903 188.078C246.73 188.626 246.602 189.188 246.522 189.757C246.493 190.033 246.493 190.312 246.522 190.589C246.602 191.432 247.086 192.302 247.89 192.577C248.514 192.742 249.178 192.66 249.743 192.348C250.288 192.063 250.799 191.717 251.267 191.318C252.111 190.678 252.852 189.914 253.466 189.051C255.372 186.197 254.754 182.335 256.092 179.179C256.98 177.073 258.71 175.363 259.286 173.142C259.42 172.72 259.436 172.268 259.332 171.837C259.091 171.074 258.28 170.639 257.521 170.364H257.487C256.864 170.142 256.227 169.96 255.581 169.818C255.421 169.784 255.257 169.757 255.093 169.731C254.731 169.435 254.442 169.059 254.251 168.632C254.221 168.405 254.161 168.183 254.072 167.971C254.011 167.881 253.93 167.805 253.835 167.752C253.739 167.699 253.632 167.67 253.523 167.666C253.142 167.628 252.631 167.765 252.216 167.735C251.366 167.674 250.802 166.838 250.04 166.453C249.278 166.067 248.451 166.163 247.639 166.22C247.348 166.26 247.053 166.242 246.77 166.167C246.431 166.01 246.122 165.797 245.855 165.537C245.386 165.171 244.839 164.92 244.256 164.803C243.673 164.686 243.071 164.706 242.497 164.861C242.133 165.009 241.747 165.097 241.354 165.121C240.611 165.079 240.085 164.415 239.536 163.911C238.035 162.534 235.897 162.171 234.075 161.267C233.796 161.163 233.563 160.963 233.419 160.702C233.21 160.183 233.682 159.664 234.109 159.309L237.242 156.703C240.672 153.849 244.96 151.7 246.553 147.514C246.719 146.953 246.976 146.423 247.315 145.946C247.438 145.8 247.58 145.672 247.738 145.564C248.431 145.114 249.271 144.95 250.082 145.106C251.07 145.328 252.007 145.737 252.841 146.312C254.205 147.139 255.533 148.029 256.824 148.983C258.102 149.898 259.318 150.898 260.463 151.975C262.464 153.883 264.13 156.146 265.993 158.203C267.857 160.259 269.988 162.179 272.575 163.163C275.163 164.148 278.292 164.106 280.514 162.454C283.079 160.546 283.902 157.134 284.55 154.005C285.979 152.624 286.41 150.521 287.107 148.663C287.546 147.484 288.106 146.373 288.579 145.198C289.143 143.816 289.585 142.389 290.027 140.966C290.528 139.536 290.868 138.056 291.041 136.551C291.224 134.173 290.587 131.643 291.254 129.411C292.134 129.216 292.935 128.72 293.8 128.43C295.088 128.007 296.468 128.075 297.832 128.083H297.92C298.39 128.133 298.863 128.021 299.261 127.766C299.719 127.385 299.791 126.732 299.814 126.141C299.867 124.679 299.776 123.038 298.682 122.092ZM243.462 56.9991C243.147 57.0772 242.82 57.1004 242.497 57.0678L243.462 56.9991Z" fill="url(#paint0_linear)"/>
<path d="M155.818 233.999L155.821 233.283C157.245 233.287 158.692 233.262 160.12 233.21L160.147 233.926C158.709 233.979 157.253 234.004 155.818 233.999ZM151.492 233.902C150.059 233.842 148.606 233.751 147.172 233.633L147.231 232.919C148.655 233.036 150.099 233.126 151.522 233.186L151.492 233.902ZM164.468 233.681L164.413 232.966C165.836 232.857 167.275 232.717 168.692 232.55L168.776 233.262C167.35 233.43 165.9 233.57 164.468 233.681ZM142.866 233.192C141.438 233.016 139.997 232.81 138.582 232.578L138.698 231.871C140.103 232.101 141.535 232.306 142.954 232.481L142.866 233.192ZM173.063 232.671L172.951 231.964C174.358 231.741 175.781 231.486 177.183 231.205L177.324 231.908C175.913 232.191 174.479 232.447 173.063 232.671H173.063ZM134.326 231.791C132.916 231.501 131.496 231.178 130.105 230.833L130.277 230.137C131.66 230.481 133.07 230.801 134.47 231.089L134.326 231.791ZM181.55 230.972L181.381 230.276C182.77 229.939 184.168 229.57 185.538 229.178L185.735 229.867C184.356 230.261 182.948 230.633 181.55 230.972H181.55ZM125.926 229.705C124.545 229.301 123.156 228.865 121.796 228.407L122.025 227.728C123.375 228.182 124.755 228.616 126.127 229.016L125.926 229.705ZM189.871 228.592L189.646 227.911C191.001 227.464 192.365 226.982 193.701 226.479L193.953 227.15C192.608 227.656 191.235 228.141 189.871 228.592H189.871ZM117.711 226.939C116.369 226.425 115.016 225.877 113.691 225.307L113.974 224.649C115.29 225.214 116.634 225.76 117.968 226.27L117.711 226.939ZM197.962 225.549L197.682 224.889C198.994 224.334 200.312 223.745 201.598 223.138L201.903 223.787C200.609 224.397 199.282 224.99 197.962 225.549H197.962ZM109.742 223.514C108.442 222.891 107.139 222.235 105.869 221.562L106.205 220.929C107.466 221.597 108.76 222.249 110.051 222.867L109.742 223.514ZM205.773 221.866L205.441 221.231C206.705 220.571 207.972 219.877 209.205 219.169L209.562 219.79C208.32 220.503 207.046 221.201 205.773 221.866ZM102.08 219.456C100.834 218.73 99.5887 217.971 98.3799 217.199L98.7654 216.595C99.966 217.361 101.203 218.116 102.441 218.837L102.08 219.456ZM213.267 217.562L212.885 216.956C214.089 216.199 215.296 215.405 216.474 214.597L216.879 215.187C215.694 216.001 214.479 216.8 213.267 217.562ZM94.7745 214.796C93.5921 213.974 92.4128 213.117 91.2692 212.251L91.7019 211.68C92.8379 212.54 94.0094 213.391 95.1837 214.208L94.7745 214.796ZM220.395 212.669L219.966 212.095C221.105 211.244 222.245 210.356 223.356 209.455L223.807 210.011C222.689 210.918 221.541 211.812 220.395 212.669V212.669ZM87.8696 209.567C86.76 208.654 85.6536 207.707 84.5812 206.75L85.0582 206.215C86.1236 207.165 87.2226 208.107 88.325 209.014L87.8696 209.567ZM227.111 207.218L226.638 206.68C227.709 205.737 228.775 204.76 229.807 203.776L230.302 204.294C229.263 205.285 228.19 206.269 227.111 207.218ZM81.4087 203.804C80.3782 202.808 79.3516 201.775 78.3575 200.734L78.8756 200.239C79.8633 201.273 80.8831 202.299 81.907 203.289L81.4087 203.804ZM233.373 201.244L232.858 200.746C233.85 199.721 234.835 198.662 235.786 197.596L236.321 198.074C235.363 199.146 234.371 200.213 233.373 201.244ZM75.4319 197.546C74.48 196.466 73.5396 195.355 72.6368 194.243L73.1932 193.791C74.0898 194.895 75.0241 195.999 75.9696 197.072L75.4319 197.546ZM239.14 194.787L238.586 194.331C239.496 193.227 240.393 192.091 241.254 190.956L241.825 191.389C240.959 192.532 240.055 193.675 239.14 194.787V194.787ZM69.9768 190.832C69.117 189.683 68.2689 188.501 67.4564 187.318L68.047 186.912C68.8541 188.087 69.6964 189.261 70.5507 190.403L69.9768 190.832ZM244.373 187.885L243.785 187.476C244.603 186.301 245.406 185.097 246.174 183.895L246.778 184.281C246.005 185.49 245.196 186.703 244.373 187.885ZM65.0793 183.707C64.3154 182.494 63.5653 181.248 62.8499 180.004L63.4712 179.647C64.1817 180.882 64.9269 182.12 65.6856 183.325L65.0793 183.707ZM249.037 180.582L248.418 180.221C249.139 178.983 249.844 177.717 250.512 176.458L251.145 176.794C250.472 178.062 249.763 179.336 249.037 180.582V180.582ZM60.7722 176.215C60.1086 174.945 59.4616 173.643 58.8493 172.346L59.4973 172.041C60.1057 173.329 60.7483 174.621 61.4073 175.883L60.7722 176.215ZM253.098 172.923L252.452 172.613C253.07 171.324 253.67 170.005 254.235 168.691L254.894 168.974C254.324 170.297 253.72 171.625 253.098 172.923ZM57.0847 168.406C56.5246 167.084 55.9852 165.736 55.4812 164.398L56.1518 164.146C56.6525 165.474 57.1882 166.813 57.7445 168.126L57.0847 168.406ZM256.529 164.955L255.859 164.698C256.372 163.359 256.863 161.994 257.32 160.642L257.998 160.871C257.539 162.233 257.045 163.606 256.529 164.954V164.955ZM54.0375 160.317C53.5856 158.954 53.1559 157.562 52.7602 156.182L53.4492 155.984C53.8423 157.355 54.269 158.737 54.7178 160.092L54.0375 160.317ZM259.298 156.741L258.61 156.54C259.01 155.174 259.388 153.778 259.734 152.39L260.429 152.563C260.081 153.961 259.701 155.366 259.298 156.741ZM51.652 151.997C51.3122 150.601 50.9969 149.179 50.7142 147.772L51.417 147.631C51.6976 149.028 52.0109 150.441 52.3482 151.828L51.652 151.997ZM261.39 148.344L260.687 148.198C260.975 146.804 261.239 145.381 261.471 143.971L262.178 144.088C261.945 145.507 261.679 146.939 261.39 148.344V148.344ZM49.9483 143.512C49.7232 142.096 49.5236 140.654 49.355 139.224L50.0667 139.141C50.2342 140.56 50.4325 141.993 50.6562 143.399L49.9483 143.512ZM262.795 139.803L262.083 139.715C262.258 138.297 262.407 136.858 262.524 135.439L263.239 135.498C263.12 136.927 262.971 138.375 262.795 139.803V139.803ZM48.9346 134.917C48.8237 133.485 48.7402 132.031 48.6867 130.596L49.4027 130.569C49.4559 131.995 49.5389 133.439 49.649 134.862L48.9346 134.917ZM263.51 131.179L262.795 131.148C262.855 129.72 262.889 128.274 262.893 126.849L262.894 126.612L263.61 126.614L263.61 126.85C263.605 128.285 263.572 129.741 263.51 131.179ZM49.327 126.27L48.6104 126.267L48.6109 126.147C48.6155 124.749 48.6472 123.333 48.7055 121.941L49.4214 121.971C49.3637 123.354 49.3321 124.761 49.3276 126.151L49.327 126.27ZM262.813 122.314C262.759 120.891 262.675 119.446 262.562 118.021L263.277 117.965C263.39 119.4 263.474 120.854 263.529 122.287L262.813 122.314ZM49.6865 117.68L48.9721 117.621C49.0895 116.187 49.2374 114.738 49.4114 113.315L50.1229 113.402C49.9499 114.816 49.8031 116.255 49.6865 117.68ZM262.14 113.743C261.972 112.329 261.772 110.896 261.546 109.485L262.254 109.372C262.481 110.792 262.683 112.235 262.852 113.658L262.14 113.743ZM50.7303 109.146L50.0231 109.031C50.2548 107.612 50.5187 106.18 50.8076 104.774L51.5094 104.918C51.2226 106.315 50.9606 107.737 50.7303 109.146H50.7303ZM260.78 105.254C260.497 103.853 260.182 102.441 259.844 101.058L260.54 100.888C260.881 102.28 261.198 103.702 261.483 105.112L260.78 105.254ZM52.4587 100.725L51.763 100.552C52.1084 99.1588 52.4875 97.7526 52.8895 96.3727L53.5775 96.5732C53.1782 97.9438 52.8018 99.3405 52.4587 100.725ZM258.739 96.9031C258.345 95.533 257.917 94.1513 257.466 92.7964L258.146 92.5705C258.6 93.9345 259.031 95.3255 259.428 96.7048L258.739 96.9031ZM54.8637 92.4707L54.1843 92.2424C54.6423 90.8793 55.1353 89.5048 55.6498 88.1571L56.3194 88.4127C55.8083 89.7514 55.3185 91.1167 54.8637 92.4707ZM256.027 88.7447C255.522 87.41 254.985 86.0713 254.43 84.7656L255.09 84.4854C255.648 85.7998 256.19 87.1474 256.698 88.4911L256.027 88.7447ZM57.9385 84.4184L57.2798 84.1356C57.8473 82.8134 58.45 81.4843 59.0711 80.1854L59.7176 80.4944C59.1007 81.7847 58.5021 83.105 57.9385 84.4184H57.9385ZM252.673 80.8528C252.064 79.5662 251.42 78.2742 250.759 77.0128L251.394 76.6802C252.059 77.9502 252.708 79.2507 253.321 80.5463L252.673 80.8528ZM61.6542 76.6467L61.0205 76.3118C61.6926 75.0408 62.4005 73.7655 63.1243 72.5212L63.7439 72.8816C63.0249 74.1175 62.3218 75.3844 61.6542 76.6467ZM248.691 73.2519C247.978 72.0159 247.232 70.7792 246.472 69.5759L247.078 69.1933C247.843 70.4047 248.594 71.6498 249.312 72.8939L248.691 73.2519ZM65.9834 69.2049L65.3789 68.8198C66.1517 67.6068 66.9597 66.3932 67.7801 65.213L68.3684 65.622C67.5534 66.7945 66.7511 67.9998 65.9834 69.2049ZM244.107 65.991C243.298 64.8169 242.454 63.6433 241.599 62.5032L242.173 62.0732C243.033 63.2211 243.882 64.4024 244.697 65.5845L244.107 65.991ZM70.8951 62.1386L70.3237 61.7063C71.1911 60.5596 72.0933 59.4155 73.0052 58.3053L73.5591 58.7603C72.6532 59.863 71.7569 60.9996 70.8951 62.1386ZM238.953 59.1176C238.053 58.0119 237.117 56.9091 236.173 55.8401L236.71 55.3656C237.661 56.4418 238.603 57.5519 239.509 58.6652L238.953 59.1176ZM76.3558 55.492L75.8209 55.0153C76.7758 53.9435 77.7663 52.8755 78.7649 51.8413L79.2805 52.3392C78.2886 53.3665 77.3046 54.4274 76.3558 55.492H76.3558ZM233.264 52.6754C232.275 51.6432 231.255 50.6184 230.229 49.6293L230.726 49.1133C231.759 50.1091 232.787 51.1408 233.781 52.1799L233.264 52.6754ZM82.3282 49.3062L81.833 48.7881C82.8703 47.7965 83.9428 46.8117 85.0202 45.861L85.4944 46.3983C84.424 47.3428 83.3587 48.3212 82.3283 49.3062L82.3282 49.3062ZM227.075 46.7063C226.007 45.756 224.907 44.8157 223.805 43.9115L224.26 43.3575C225.369 44.2678 226.476 45.2143 227.551 46.171L227.075 46.7063ZM88.7736 43.62L88.3212 43.0643C89.4361 42.1572 90.5833 41.2618 91.7308 40.4026L92.1604 40.9761C91.0205 41.8296 89.881 42.7192 88.7736 43.62L88.7736 43.62ZM220.425 41.2495C219.284 40.3877 218.111 39.5383 216.94 38.7247L217.349 38.136C218.528 38.955 219.708 39.8101 220.857 40.6777L220.425 41.2495ZM95.6501 38.4699L95.2437 37.8797C96.4277 37.0649 97.6423 36.2645 98.8539 35.5007L99.2361 36.107C98.0326 36.8656 96.8261 37.6605 95.6501 38.4699ZM213.356 36.3413C212.15 35.5741 210.913 34.8214 209.678 34.104L210.038 33.4844C211.281 34.2065 212.526 34.9644 213.741 35.7366L213.356 36.3413ZM102.913 33.8908L102.556 33.2695C103.797 32.555 105.071 31.8551 106.343 31.1897L106.675 31.8245C105.412 32.4856 104.146 33.1808 102.913 33.8908V33.8908ZM205.912 32.0162C204.648 31.3489 203.353 30.6982 202.063 30.0821L202.372 29.4354C203.671 30.0555 204.975 30.7107 206.246 31.3825L205.912 32.0162ZM110.516 29.9126L110.21 29.2645C111.504 28.6527 112.83 28.0583 114.15 27.4978L114.43 28.1575C113.118 28.7141 111.802 29.3045 110.516 29.9125L110.516 29.9126ZM198.138 28.3051C196.823 27.7414 195.479 27.1976 194.143 26.6882L194.398 26.0186C195.743 26.5313 197.096 27.079 198.42 27.6464L198.138 28.3051ZM118.41 26.5625L118.157 25.8919C119.499 25.385 120.872 24.8986 122.237 24.4458L122.462 25.1262C121.107 25.5758 119.744 26.0591 118.41 26.5625ZM190.084 25.2346C188.731 24.781 187.351 24.3491 185.98 23.9507L186.181 23.2627C187.56 23.6637 188.95 24.0985 190.311 24.5551L190.084 25.2346ZM126.57 23.855L126.372 23.1663C127.751 22.7698 129.159 22.3962 130.556 22.0555L130.725 22.7517C129.338 23.0901 127.94 23.4614 126.57 23.855ZM181.828 22.8345C180.446 22.4925 179.035 22.1738 177.635 21.8873L177.778 21.1851C179.188 21.4736 180.608 21.7945 182 22.1387L181.828 22.8345ZM134.922 21.8184L134.78 21.1159C136.186 20.8329 137.62 20.5744 139.04 20.3476L139.153 21.0552C137.742 21.2806 136.318 21.5374 134.922 21.8184ZM173.406 21.1107C171.997 20.8814 170.565 20.6776 169.149 20.5053L169.236 19.7939C170.661 19.9674 172.103 20.1724 173.521 20.4035L173.406 21.1107ZM143.412 20.4633L143.327 19.7516C144.753 19.5827 146.202 19.4403 147.634 19.3289L147.69 20.0433C146.268 20.1542 144.828 20.2955 143.412 20.4633ZM164.872 20.0714C163.452 19.956 162.008 19.8677 160.581 19.8089L160.61 19.0927C162.047 19.152 163.5 19.2409 164.93 19.3571L164.872 20.0714ZM151.983 19.7947L151.956 19.0786C153.389 19.0241 154.845 18.9978 156.283 19L156.282 19.7167C154.853 19.7145 153.407 19.7407 151.983 19.7947Z" fill="#2D9CDB"/>
<path d="M244.963 81.1389C244.502 81.5314 243.961 81.8191 243.378 81.9823L240.676 82.9515C239.208 83.4781 237.676 84.0086 236.129 83.8178C235.264 83.7109 231.555 83.1652 230.995 82.4898C230.141 81.4442 233.133 79.9064 234.155 79.0249C234.386 78.8582 234.601 78.6691 234.795 78.4601C235.176 77.9946 235.126 77.3421 235.073 76.7544C234.879 75.2657 234.813 73.763 234.875 72.263C234.905 71.9054 234.955 71.5499 235.027 71.1983C235.408 69.443 237.04 70.0841 238.328 70.5496C239.878 71.054 241.378 71.7043 242.806 72.4919C243.241 72.7165 243.619 73.0376 243.911 73.4307C244.475 74.2855 244.25 75.4074 244.159 76.4835C244.079 77.3192 244.083 78.1205 244.605 78.7272C244.868 78.9592 245.109 79.2147 245.325 79.4904C245.447 79.7682 245.478 80.0775 245.413 80.3738C245.348 80.6702 245.19 80.9381 244.963 81.1389Z" fill="#BE6F72"/>
<path d="M207.636 53.6372C208.017 51.9467 208.101 50.2028 208.559 48.5276C208.881 47.4384 209.281 46.3736 209.755 45.3413L211.436 41.4147C211.59 40.951 211.863 40.5363 212.229 40.2126C212.621 39.9696 213.075 39.8476 213.536 39.8616C215.179 39.8005 216.905 40.3118 218.026 41.5215C219.146 42.7312 219.5 44.6888 218.609 46.074C217.541 47.7415 215.213 48.0774 213.822 49.4816C212.934 50.3784 212.503 51.6262 212.24 52.8588C211.546 56.0642 211.779 59.3879 211.566 62.662C211.497 63.6809 211.299 64.8447 210.422 65.3713C209.892 65.6313 209.303 65.7459 208.715 65.7033L206.215 65.7453C205.795 65.7453 204.275 66.0086 203.997 65.6919C203.509 65.1386 204.622 62.3834 204.824 61.7691C205.273 60.4068 205.826 59.0788 206.348 57.7394C206.802 56.545 207.636 54.9308 207.636 53.6372Z" fill="#BE6F72"/>
<path d="M259.259 173.52C258.683 175.726 256.953 177.443 256.065 179.545C254.727 182.693 255.329 186.544 253.439 189.391C252.826 190.255 252.084 191.021 251.24 191.661C250.772 192.06 250.261 192.404 249.716 192.688C249.151 193 248.487 193.082 247.863 192.916C247.059 192.642 246.575 191.772 246.495 190.932C246.466 190.657 246.466 190.379 246.495 190.104C246.575 189.536 246.703 188.976 246.876 188.429C247.334 186.885 247.79 185.338 248.244 183.789C248.529 182.948 248.713 182.077 248.793 181.194C248.843 180.232 248.233 178.981 248.492 178.084C248.61 177.679 249.052 177.321 249.254 176.981C249.541 176.492 249.762 175.967 249.91 175.42C250.222 174.356 250.436 173.218 251.091 172.322C251.519 171.79 252.019 171.321 252.578 170.929C252.99 170.567 253.473 170.296 253.996 170.131C254.503 170.042 255.024 170.067 255.52 170.204C256.166 170.342 256.803 170.523 257.426 170.746H257.46C258.222 171.02 259.03 171.444 259.27 172.215C259.387 172.643 259.383 173.094 259.259 173.52Z" fill="#3F3D56"/>
<path d="M299.81 126.606C299.787 127.198 299.715 127.858 299.258 128.228C298.859 128.483 298.386 128.595 297.916 128.545H297.813C296.452 128.545 295.069 128.468 293.781 128.892C292.801 129.216 291.902 129.812 290.881 129.93C289.474 130.09 288.152 129.319 286.905 128.648C285.732 128.015 284.527 127.442 283.296 126.931C282.488 126.599 280.838 126.385 280.449 125.5C280.316 125.081 280.204 124.655 280.114 124.225C280.05 124.033 279.972 123.845 279.881 123.664C279.653 123.278 279.507 122.847 279.455 122.401C279.456 121.956 279.609 121.525 279.889 121.18C280.2 120.811 280.581 120.508 281.009 120.287C281.437 120.067 281.905 119.933 282.385 119.894C283.346 119.819 284.312 119.871 285.259 120.047L294.642 121.397C295.366 121.501 296.094 121.604 296.807 121.779C297.484 121.897 298.122 122.177 298.667 122.596C299.776 123.527 299.867 125.164 299.81 126.606Z" fill="#3F3D56"/>
<path d="M291.563 129.049C290.419 131.464 291.243 134.322 291.037 136.993C290.864 138.495 290.524 139.972 290.023 141.397C289.581 142.817 289.139 144.24 288.575 145.617C288.102 146.762 287.542 147.907 287.104 149.075C286.406 150.937 285.96 153.032 284.546 154.417C283.898 157.539 283.075 160.95 280.51 162.843C278.281 164.491 275.175 164.549 272.572 163.553C269.968 162.557 267.853 160.649 265.99 158.592C264.126 156.535 262.46 154.295 260.46 152.379C259.313 151.302 258.094 150.304 256.812 149.391C255.522 148.453 254.194 147.57 252.83 146.743C251.994 146.171 251.058 145.763 250.07 145.541C249.259 145.385 248.419 145.549 247.726 145.999C247.569 146.107 247.427 146.235 247.303 146.381C246.964 146.856 246.706 147.385 246.541 147.945C244.94 152.12 240.645 154.264 237.215 157.111L234.082 159.71C233.655 160.065 233.183 160.584 233.392 161.099C233.537 161.359 233.769 161.56 234.048 161.664C235.87 162.564 238.008 162.927 239.509 164.3C240.058 164.804 240.584 165.468 241.327 165.506C241.72 165.483 242.106 165.397 242.471 165.251C243.044 165.095 243.646 165.075 244.228 165.192C244.811 165.308 245.359 165.558 245.828 165.922C246.095 166.183 246.405 166.396 246.743 166.552C247.026 166.627 247.322 166.645 247.612 166.605C248.424 166.548 249.285 166.476 250.013 166.838C250.741 167.201 251.339 168.055 252.189 168.116C252.605 168.147 253.1 168.01 253.497 168.048C253.606 168.051 253.712 168.081 253.808 168.134C253.903 168.187 253.985 168.262 254.045 168.353C254.134 168.563 254.195 168.784 254.224 169.009C254.381 169.547 254.907 169.876 255.25 170.318C255.776 170.998 255.852 171.921 255.798 172.78C255.626 175.464 254.431 177.98 252.46 179.809C251.9 180.381 251.187 180.779 250.406 180.953C250.015 181.035 249.608 180.992 249.242 180.83C248.877 180.668 248.572 180.394 248.37 180.049C248.285 179.752 248.157 179.469 247.989 179.21C247.376 178.534 246 179.252 245.436 178.53C245.085 178.08 245.337 177.359 245.001 176.893C244.666 176.428 243.858 176.512 243.237 176.485C242.509 176.447 241.834 176.103 241.129 175.924C239.986 175.626 238.789 175.737 237.619 175.657C236.647 175.571 235.681 175.418 234.73 175.199L229.882 174.207C226.795 173.577 223.697 172.94 220.758 171.814C219.634 171.387 218.502 170.86 217.709 169.944C217.07 169.14 216.66 168.177 216.52 167.159C215.831 163.087 219.489 159.607 219.95 155.505C220.114 154.009 220.713 152.597 221.277 151.208C222.311 148.725 223.342 146.241 224.371 143.755C224.538 143.293 224.755 142.85 225.019 142.435C225.458 141.904 225.952 141.421 226.494 140.996C227.938 139.684 228.975 137.983 229.478 136.097C229.516 135.887 229.603 135.689 229.734 135.52C229.869 135.407 230.017 135.311 230.176 135.234C230.448 135.057 230.653 134.793 230.757 134.485C230.862 134.177 230.859 133.843 230.751 133.536C230.988 133.517 231.21 133.413 231.376 133.243C231.543 133.074 231.643 132.85 231.658 132.613C231.631 132.406 231.644 132.196 231.697 131.994C231.788 131.796 232.017 131.697 232.15 131.521C232.367 131.235 232.291 130.834 232.257 130.476C232.234 130.249 232.234 130.02 232.257 129.793C232.34 128.985 232.701 128.231 233.278 127.66C234.189 126.763 235.485 126.996 236.743 126.782C237.997 126.511 239.222 126.118 240.401 125.61C243.708 124.306 247.19 123.499 250.733 123.218C254.294 122.937 257.871 123.508 261.168 124.881C261.648 125.076 262.101 125.333 262.514 125.645C262.807 125.871 263.048 126.159 263.219 126.488C263.36 126.892 263.533 127.284 263.737 127.66C264.145 128.217 264.915 128.396 265.361 128.923C265.807 129.449 265.845 130.338 266.214 130.991C266.744 131.922 267.971 132.353 268.337 133.364C268.452 133.685 268.467 134.036 268.551 134.368C268.757 135.2 269.374 135.856 269.919 136.513C271.917 138.905 273.196 141.816 273.608 144.908C273.73 142.973 275.03 141.26 276.657 140.191C277.095 139.905 277.602 139.588 277.69 139.069C277.8 138.413 277.164 137.829 277.206 137.161C277.252 136.835 277.384 136.527 277.587 136.268C278.313 135.214 279.11 134.211 279.973 133.265C280.442 132.75 280.968 132.12 280.773 131.441C280.625 130.934 280.106 130.636 279.82 130.193C279.654 129.929 279.568 129.622 279.575 129.31C279.582 128.998 279.68 128.694 279.859 128.438C280.125 128.075 280.548 127.812 280.678 127.381C280.827 126.873 280.495 126.324 280.598 125.801C280.737 125.382 281.014 125.023 281.383 124.782C281.889 124.321 282.464 123.943 283.087 123.66C284.093 123.279 285.213 123.42 286.28 123.569C288.064 123.817 290.065 124.198 291.071 125.694C291.715 126.629 292.043 128.049 291.563 129.049Z" fill="#65617D"/>
<path opacity="0.1" d="M299.81 126.606C299.787 127.198 299.715 127.858 299.257 128.228C298.859 128.483 298.386 128.595 297.916 128.545H297.813C297.969 127.751 298.933 127.297 299.101 126.492C299.13 126.244 299.107 125.994 299.035 125.756C298.963 125.517 298.843 125.296 298.682 125.107C297.866 124.004 296.555 123.393 295.252 122.947C291.569 121.683 287.624 121.387 283.795 122.088C282.754 122.258 281.741 122.57 280.784 123.015C280.467 123.214 280.162 123.431 279.87 123.664C279.641 123.278 279.496 122.847 279.443 122.401C279.444 121.956 279.598 121.525 279.877 121.18C280.188 120.811 280.569 120.508 280.997 120.287C281.426 120.067 281.893 119.933 282.374 119.894C283.334 119.819 284.3 119.871 285.247 120.047L294.63 121.397C295.355 121.501 296.083 121.604 296.795 121.779C297.472 121.897 298.11 122.177 298.655 122.596C299.776 123.527 299.867 125.164 299.81 126.606Z" fill="black"/>
<path opacity="0.1" d="M259.259 173.52C258.683 175.725 256.953 177.443 256.065 179.545C254.727 182.693 255.329 186.544 253.439 189.39C252.826 190.255 252.084 191.021 251.24 191.661C250.772 192.059 250.261 192.404 249.716 192.687C249.151 193 248.487 193.082 247.863 192.916C247.059 192.642 246.575 191.772 246.495 190.932C246.466 190.657 246.466 190.379 246.495 190.104L246.518 190.165C246.85 190.966 247.391 191.806 248.244 191.947C248.565 191.97 248.887 191.927 249.19 191.82C249.493 191.713 249.77 191.545 250.005 191.325C251.263 190.314 251.995 188.807 252.692 187.353C253.238 186.304 253.67 185.2 253.98 184.06C254.133 183.411 254.205 182.747 254.361 182.098C255.085 178.946 257.551 176.374 258.096 173.18C258.141 172.961 258.151 172.735 258.127 172.512C258.055 172.222 257.945 171.942 257.799 171.681C257.667 171.385 257.569 171.075 257.509 170.757C258.272 171.032 259.08 171.455 259.32 172.226C259.418 172.655 259.397 173.102 259.259 173.52Z" fill="black"/>
<path opacity="0.1" d="M253.504 168.048C253.151 168.971 252.558 169.783 251.785 170.398C250.7 171.226 249.43 171.776 248.084 172.001C247.458 172.161 246.801 172.153 246.179 171.978C245.333 171.684 244.723 170.891 243.858 170.662C243.24 170.494 242.577 170.643 241.952 170.551C240.828 170.395 239.955 169.536 239.048 168.849C236.27 166.758 232.622 166.083 229.844 163.991C229.72 163.915 229.618 163.809 229.547 163.682C229.494 163.545 229.474 163.397 229.49 163.251C229.5 161.983 229.785 160.732 230.324 159.584C230.766 158.783 231.293 158.032 231.894 157.344C234.383 154.291 236.883 151.216 239.864 148.64C241.114 147.56 242.478 146.552 244.056 146.064C244.933 145.793 246.663 145.537 247.73 145.995C247.573 146.103 247.43 146.231 247.307 146.377C246.968 146.852 246.71 147.381 246.545 147.941C244.94 152.12 240.645 154.265 237.215 157.111L234.082 159.71C233.655 160.065 233.183 160.584 233.392 161.099C233.536 161.36 233.769 161.56 234.048 161.664C235.87 162.564 238.008 162.927 239.509 164.301C240.058 164.804 240.584 165.468 241.327 165.506C241.72 165.483 242.106 165.397 242.471 165.251C243.044 165.095 243.646 165.075 244.228 165.192C244.811 165.308 245.358 165.558 245.828 165.922C246.095 166.183 246.404 166.396 246.743 166.552C247.026 166.627 247.321 166.645 247.612 166.605C248.424 166.548 249.285 166.476 250.013 166.838C250.741 167.201 251.339 168.055 252.189 168.117C252.612 168.147 253.108 168.002 253.504 168.048Z" fill="black"/>
<path d="M218.452 116.257C217.728 116.723 216.958 117.25 216.661 118.059C216.417 118.719 216.532 119.474 216.238 120.115C215.945 120.756 215.285 121.203 215.14 121.89C215.038 122.39 215.24 122.916 215.14 123.416C215.054 123.676 214.984 123.941 214.931 124.21C214.893 124.778 215.381 125.24 215.857 125.557C216.871 126.217 218.026 126.631 219.229 126.763C220.431 126.896 221.648 126.744 222.782 126.32C223.799 125.938 224.718 125.316 225.694 124.828C226.645 124.279 227.733 124.015 228.83 124.065C229.459 124.134 230.061 124.362 230.69 124.446C231.001 124.508 231.321 124.493 231.625 124.402C231.928 124.312 232.205 124.149 232.432 123.927C232.626 123.659 232.756 123.35 232.813 123.023C233.343 120.928 233.103 118.707 232.599 116.601C232.096 114.494 231.334 112.468 230.797 110.373C230.416 108.82 230.122 107.229 229.486 105.76C228.849 104.29 227.778 102.924 226.281 102.363C226.162 102.305 226.028 102.288 225.899 102.314C225.803 102.354 225.718 102.417 225.652 102.497C224.467 103.754 223.574 105.258 223.037 106.901C222.439 108.728 222.275 110.667 221.726 112.502C221.49 113.266 221.185 114.288 220.583 114.872C219.981 115.456 219.135 115.819 218.452 116.257Z" fill="#3F3D56"/>
<path opacity="0.1" d="M232.824 123.012C232.761 123.339 232.624 123.648 232.424 123.916C232.198 124.138 231.921 124.301 231.618 124.391C231.314 124.481 230.993 124.495 230.683 124.431C230.058 124.355 229.455 124.122 228.827 124.05C227.73 123.999 226.641 124.264 225.69 124.813C224.714 125.301 223.784 125.908 222.774 126.301C221.297 126.862 219.683 126.954 218.151 126.564C217.338 126.36 216.565 126.019 215.865 125.557C215.385 125.244 214.901 124.794 214.939 124.21C214.992 123.942 215.062 123.679 215.148 123.42C215.247 122.92 215.049 122.393 215.148 121.894C215.293 121.207 215.956 120.749 216.246 120.115C216.536 119.482 216.425 118.722 216.665 118.062C216.962 117.249 217.736 116.727 218.46 116.257C219.184 115.788 220.046 115.429 220.625 114.861C220.7 114.772 220.767 114.678 220.827 114.578C221.245 113.933 221.551 113.222 221.734 112.476C222.294 110.636 222.447 108.702 223.041 106.87C223.58 105.229 224.474 103.726 225.659 102.47C225.723 102.388 225.807 102.325 225.903 102.287C226.032 102.261 226.166 102.277 226.285 102.333C227.778 102.898 228.849 104.264 229.49 105.733C230.13 107.202 230.401 108.786 230.801 110.343C231.334 112.438 232.1 114.471 232.603 116.574C233.107 118.677 233.354 120.913 232.824 123.012Z" fill="black"/>
<path opacity="0.1" d="M244.159 76.472C242.367 77.0422 240.428 76.9289 238.714 76.1541C237 75.3793 235.633 73.9975 234.875 72.2745C234.905 71.9169 234.956 71.5614 235.027 71.2098C235.409 69.4545 237.04 70.0955 238.328 70.5611C239.879 71.0654 241.378 71.7158 242.806 72.5034C243.241 72.728 243.619 73.049 243.911 73.4422C244.475 74.2855 244.25 75.4074 244.159 76.472Z" fill="black"/>
<path d="M241.857 76.4491C246.067 76.4491 249.48 73.0321 249.48 68.8171C249.48 64.6021 246.067 61.1852 241.857 61.1852C237.648 61.1852 234.235 64.6021 234.235 68.8171C234.235 73.0321 237.648 76.4491 241.857 76.4491Z" fill="#BE6F72"/>
<path opacity="0.1" d="M262.54 125.851C262.54 126.484 261.683 126.686 261.046 126.652C258.759 126.519 256.522 125.889 254.258 126.08C251.396 126.339 248.767 127.923 245.897 128.068C244.791 128.125 243.667 127.961 242.577 128.163C241.167 128.427 239.909 129.285 238.472 129.407C237.226 129.514 235.995 129.045 234.749 129.094C233.878 129.146 233.028 129.389 232.26 129.804C232.344 128.996 232.705 128.242 233.282 127.671C234.193 126.774 235.488 127.007 236.746 126.793C238.001 126.522 239.226 126.13 240.405 125.622C243.712 124.317 247.194 123.511 250.737 123.229C254.296 122.946 257.871 123.512 261.168 124.882C261.648 125.076 262.1 125.333 262.513 125.645C262.534 125.711 262.543 125.781 262.54 125.851Z" fill="black"/>
<path d="M238.332 82.7531L235.244 81.6083L233.941 81.1275C233.41 80.9047 232.851 80.7557 232.279 80.6849C230.785 80.5704 229.379 81.5664 228.582 82.8371C227.786 84.1078 227.485 85.6227 227.229 87.0995C226.879 89.1194 226.582 91.147 226.338 93.1822C226.075 95.02 225.941 96.874 225.938 98.7306C226.025 103.455 227.024 108.114 228.121 112.712C228.659 114.751 229.065 116.822 229.337 118.913C229.429 119.776 229.47 120.642 229.562 121.508C229.661 122.481 229.821 123.443 229.981 124.408L230.9 129.892C232.043 129.079 233.343 128.365 234.749 128.323C235.995 128.278 237.23 128.743 238.473 128.636C239.902 128.518 241.167 127.66 242.577 127.396C243.667 127.194 244.791 127.354 245.901 127.301C248.767 127.156 251.4 125.568 254.258 125.313C256.526 125.107 258.779 125.748 261.05 125.881C261.683 125.919 262.54 125.717 262.54 125.08C262.54 124.637 262.098 124.343 261.713 124.122C259.899 123.028 258.172 121.794 256.549 120.432C255.047 119.241 253.523 118.02 252.49 116.41C250.001 112.537 250.855 107.297 248.732 103.211C247.006 99.8907 248.732 95.5404 248.732 91.797C248.732 89.931 248.732 88.0421 248.294 86.2295C248.02 85.2157 247.679 84.2213 247.273 83.253L245.79 79.4943C245.759 79.3844 245.699 79.2853 245.615 79.2081C245.515 79.1393 245.397 79.1033 245.276 79.1051C244.385 79.0516 243.507 79.3333 242.813 79.895C242.116 80.4635 241.67 81.2802 240.984 81.8716C240.233 82.5242 239.265 83.0966 238.332 82.7531Z" fill="#E3E8F4"/>
<path d="M243.313 80.5857C243.557 79.5401 243.82 78.4525 244.517 77.6359C245.215 76.8193 246.488 76.3881 247.387 76.9719C248.409 77.6359 248.45 79.1699 249.323 80.0247C250.085 80.7574 251.229 80.8146 252.265 80.91C254.129 81.0799 255.96 81.5115 257.704 82.1922C258.044 82.2977 258.354 82.4836 258.607 82.7341C259.084 83.2759 258.988 84.1078 259.225 84.7832C259.549 85.6533 260.444 86.2066 260.791 87.0728C261.172 88.0345 260.791 89.1106 260.471 90.0989C259.895 91.8733 259.533 93.7164 258.973 95.4985C258.413 97.2806 257.616 99.0359 256.305 100.379C255.726 100.974 254.865 101.524 254.102 101.169L253.809 103.287C253.723 103.734 253.723 104.194 253.809 104.642C253.853 104.865 253.96 105.072 254.116 105.238C254.273 105.404 254.473 105.523 254.693 105.58C254.75 105.908 255.097 106.065 255.379 106.244C255.587 106.387 255.765 106.569 255.902 106.781C256.04 106.993 256.134 107.23 256.179 107.479C256.224 107.727 256.219 107.982 256.165 108.229C256.111 108.475 256.008 108.709 255.863 108.915C255.623 109.24 255.269 109.495 255.154 109.881C254.983 110.438 255.391 111.026 255.886 111.331C256.382 111.636 256.965 111.777 257.468 112.071C258.512 112.674 259.072 113.861 259.43 115.013C259.697 115.883 259.918 116.826 260.574 117.459C260.825 117.7 261.126 117.883 261.367 118.135C261.782 118.627 262.022 119.243 262.049 119.886C262.153 120.684 261.978 121.493 261.553 122.176C260.791 123.267 259.37 123.592 258.123 124.084C256.1 124.916 254.434 126.404 252.65 127.671C251.924 128.257 251.068 128.66 250.154 128.846C248.919 129.01 247.704 128.465 246.461 128.415C245.718 128.422 244.978 128.519 244.258 128.705L241.971 129.201C242.093 127.427 241.118 125.649 240.573 123.958C239.544 120.776 239.353 117.372 239.597 114.036C239.841 110.701 240.519 107.412 241.19 104.138C241.659 101.848 241.613 99.4557 242.334 97.2309C243.008 95.0902 243.972 93.0334 244.327 90.8048C244.906 87.1988 242.497 84.1422 243.313 80.5857Z" fill="#3F3D56"/>
<path d="M260.65 87.6413C260.86 88.0291 261.008 88.4476 261.088 88.8815C261.264 89.5537 261.594 90.1756 262.052 90.6979C262.436 91.0365 262.776 91.421 263.066 91.8427C263.417 92.5067 263.283 93.3157 263.447 94.0407C263.638 94.8306 264.19 95.5175 264.27 96.3303C264.273 96.5632 264.294 96.7955 264.335 97.0248C264.583 97.9482 265.94 98.1696 266.241 99.093C266.443 99.6922 266.096 100.345 266.161 100.974C266.208 101.169 266.22 101.371 266.195 101.57C266.109 101.794 265.958 101.988 265.761 102.127C264.499 103.333 263.626 104.889 263.253 106.595C262.886 108.292 262.693 110.022 262.677 111.758L261.187 109.785C261.029 109.546 260.828 109.339 260.593 109.175C260.402 109.06 260.181 109.003 259.987 108.889C259.423 108.568 259.202 107.889 258.984 107.278C258.381 105.588 257.477 104.021 256.316 102.653C255.71 101.94 255.005 101.222 254.872 100.295C254.832 99.8692 254.855 99.4397 254.941 99.0205C255.322 96.5211 255.73 93.9606 256.945 91.7435C257.513 90.7055 258.249 89.7668 258.794 88.7136C259.16 88.0153 259.674 86.1989 260.65 87.6413Z" fill="#3F3D56"/>
<path d="M223.053 90.0416C223.06 90.3628 222.978 90.6798 222.816 90.9574C222.671 91.1265 222.481 91.2516 222.268 91.319C222.056 91.3864 221.828 91.3933 221.612 91.339C221.178 91.23 220.769 91.0382 220.408 90.7743C219.346 90.1026 218.284 89.4298 217.222 88.7556C216.629 88.3978 216.057 88.0053 215.51 87.5803C214.674 86.8737 213.917 86.0792 213.25 85.2106C211.398 82.921 209.759 80.4368 207.697 78.3418C207.137 77.7694 206.554 77.2199 206.013 76.6208C205.273 75.7548 204.593 74.8394 203.978 73.8809C203.383 72.9994 202.766 72.0226 202.869 70.9693C202.93 70.3741 203.215 69.8246 203.299 69.2331C203.383 68.6416 203.158 67.9204 202.587 67.7601C202.519 67.7431 202.45 67.7316 202.381 67.7258C202.268 67.7138 202.157 67.6895 202.049 67.6533C201.519 67.4319 201.6 66.6115 201.981 66.1803C202.362 65.7491 202.926 65.5087 203.273 65.0355C203.434 64.7547 203.615 64.4857 203.814 64.2303C204.069 64.0112 204.374 63.858 204.702 63.7839C206.9 63.1352 209.226 63.0473 211.467 63.5282C211.848 63.6121 212.282 63.7648 212.397 64.1349C212.442 64.3152 212.442 64.5041 212.397 64.6844C212.229 65.4368 212.132 66.2034 212.107 66.974C212.106 67.1347 212.115 67.2952 212.134 67.4548C212.313 69.0728 213.361 70.4427 214.382 71.7058C215.594 73.2093 216.825 74.7014 218.06 76.1896C218.728 77.052 219.474 77.8504 220.29 78.5746C221.052 79.208 222.039 79.7194 222.633 80.5322C223.118 81.1885 222.961 82.0853 223.015 82.8752C223.192 85.2603 223.205 87.6548 223.053 90.0416Z" fill="#3F3D56"/>
<path d="M271.454 105.962C271.831 105.595 272.171 105.193 272.468 104.76C272.789 104.223 273.044 103.651 273.23 103.054L275.441 96.7768C275.792 95.7846 276.142 94.7887 276.584 93.8232C277.042 92.7815 277.583 91.7779 278.082 90.7704C279.366 88.1193 280.359 85.3364 281.043 82.4707C281.164 82.0769 281.204 81.663 281.162 81.2534C281.055 80.5932 280.556 80.0781 280.079 79.6087C279.6 79.0906 279.054 78.6389 278.456 78.2655C278.155 78.0784 277.82 77.953 277.471 77.8967C277.122 77.8403 276.764 77.8541 276.42 77.9373C275.445 78.2235 274.831 79.2233 274.606 80.2269C274.381 81.2305 274.465 82.257 274.37 83.2797C274.233 84.745 273.73 86.1608 273.608 87.6299C273.543 88.4809 273.608 89.3395 273.505 90.1866C273.317 91.2991 272.93 92.3683 272.362 93.3424C271.123 95.6629 269.45 97.7229 267.434 99.4098C266.881 99.8181 266.384 100.297 265.955 100.833C265.596 101.37 265.354 101.976 265.242 102.611C264.989 103.58 265.099 104.607 265.551 105.5C266.172 106.561 267.365 107.026 268.505 107.263C270.044 107.584 270.399 107.057 271.454 105.962Z" fill="#BE6F72"/>
<path d="M241.903 57.7584C242.231 57.1411 242.733 56.6342 243.348 56.301C243.962 55.9678 244.66 55.823 245.356 55.8848C246.057 56.0091 246.709 56.3273 247.238 56.8034C247.767 57.2795 248.153 57.8946 248.351 58.5789C248.531 59.1475 248.603 59.7771 248.915 60.2655C249.388 61.002 250.265 61.2157 250.92 61.75C251.312 62.114 251.626 62.5527 251.846 63.0402C252.066 63.5277 252.187 64.0543 252.201 64.589C252.237 65.6813 252.065 66.7706 251.694 67.7983C251.536 68.2368 251.409 68.6856 251.313 69.1415C251.236 69.5842 251.229 70.0344 251.16 70.4771C251.076 71.0511 250.877 71.6023 250.577 72.0984C250.277 72.5945 249.88 73.0254 249.411 73.3658C249.277 73.4749 249.111 73.5354 248.938 73.5375C248.641 73.5032 248.458 73.1559 248.348 72.843C247.742 71.0915 247.886 68.9507 246.77 67.5541C246.262 66.9907 245.648 66.5329 244.963 66.207C244.684 66.0267 244.37 65.9083 244.041 65.8598C243.558 65.8858 243.093 66.0559 242.707 66.3482C241.903 66.8884 241.01 67.2836 240.07 67.5159C239.6 67.6272 239.112 67.6322 238.641 67.5305C238.169 67.4289 237.727 67.2231 237.345 66.9282C236.819 66.4932 236.434 65.8407 235.851 65.5011C235.268 65.1614 234.658 65.1805 234.082 64.9477C233.716 64.7916 233.389 64.5536 233.128 64.252C232.867 63.9504 232.678 63.5932 232.576 63.2075C232.474 62.8218 232.461 62.4178 232.539 62.0263C232.616 61.6349 232.782 61.2663 233.023 60.9486C233.404 60.4907 233.968 60.2312 234.307 59.7237C234.745 59.0673 234.707 58.1667 234.917 57.3807C235.041 56.8833 235.282 56.4228 235.619 56.0372C235.956 55.6516 236.381 55.3521 236.857 55.1636C237.319 55.0066 237.814 54.9765 238.291 55.0765C238.769 55.1765 239.21 55.403 239.57 55.7322C239.952 56.0756 240.256 56.5183 240.63 56.877C240.999 57.2304 241.45 57.4854 241.943 57.6188C242.436 57.7521 242.954 57.7595 243.45 57.6402" fill="#3F3D56"/>
<path opacity="0.1" d="M248.168 113.926C247.946 114.124 247.789 114.384 247.717 114.672C247.645 114.961 247.661 115.265 247.764 115.544C247.848 115.723 251.781 114.964 252.197 114.907C253.233 114.758 255.051 114.83 255.749 113.88C256.991 112.197 253.142 112.571 252.437 112.632C251.095 112.747 249.19 112.93 248.168 113.926Z" fill="black"/>
<path d="M212.389 64.6997C212.221 65.4521 212.124 66.2187 212.1 66.9893C210.956 67.2221 209.767 66.8405 208.669 66.4589L205.518 65.3827C205.326 65.2601 205.095 65.2151 204.871 65.2569C204.647 65.2987 204.448 65.4242 204.313 65.6079C203.806 66.1345 203.109 67.1343 202.408 67.7258C202.295 67.7138 202.184 67.6895 202.076 67.6533C201.546 67.4319 201.626 66.6115 202.007 66.1803C202.389 65.7491 202.953 65.5087 203.299 65.0355C203.461 64.7547 203.642 64.4857 203.841 64.2303C204.096 64.0112 204.401 63.858 204.729 63.7839C206.927 63.1352 209.253 63.0473 211.494 63.5282C211.875 63.6121 212.309 63.7648 212.423 64.1349C212.461 64.323 212.449 64.5175 212.389 64.6997Z" fill="#3F3D56"/>
<path opacity="0.1" d="M212.389 64.6997C212.221 65.4521 212.124 66.2187 212.1 66.9893C210.956 67.2221 209.767 66.8405 208.669 66.4589L205.518 65.3827C205.326 65.2601 205.095 65.2151 204.871 65.2569C204.647 65.2987 204.448 65.4242 204.313 65.6079C203.806 66.1345 203.109 67.1343 202.408 67.7258C202.295 67.7138 202.184 67.6895 202.076 67.6533C201.546 67.4319 201.626 66.6115 202.007 66.1803C202.389 65.7491 202.953 65.5087 203.299 65.0355C203.461 64.7547 203.642 64.4857 203.841 64.2303C204.096 64.0112 204.401 63.858 204.729 63.7839C206.927 63.1352 209.253 63.0473 211.494 63.5282C211.875 63.6121 212.309 63.7648 212.423 64.1349C212.461 64.323 212.449 64.5175 212.389 64.6997Z" fill="black"/>
<path opacity="0.1" d="M241.221 137.146C241.77 137.329 242.364 137.596 242.551 138.146L238.138 137.024L235.851 136.44C235.447 136.337 233.999 136.219 233.732 135.902C233.351 135.436 234.704 135.757 234.948 135.791C235.687 135.902 236.426 136.016 237.162 136.15C238.549 136.398 239.883 136.806 241.221 137.146Z" fill="black"/>
<path opacity="0.1" d="M242.932 141.057C242.551 140.802 241.457 140.832 240.988 140.722C240.302 140.557 239.628 140.34 238.953 140.13C237.585 139.684 236.228 139.176 234.822 138.848C234.562 138.791 233.678 138.775 233.72 138.447C233.762 138.119 234.604 138.005 234.814 137.989C236.06 137.898 237.615 138.482 238.774 138.898C240.25 139.427 241.649 140.154 242.932 141.057Z" fill="black"/>
<path opacity="0.1" d="M240.134 133.658C238.736 133.277 237.467 132.407 236.026 132.239C235.651 132.253 235.281 132.14 234.978 131.918C234.809 131.751 234.691 131.54 234.639 131.308C235.603 131.258 236.723 131.666 237.6 132.052C238.082 132.259 238.546 132.507 238.987 132.792C239.307 132.987 239.788 133.548 240.134 133.658Z" fill="black"/>
<path d="M266.797 99.49C266.561 101.076 266.903 102.695 267.761 104.05C268.619 105.404 269.936 106.404 271.47 106.866C271.283 107.771 270.349 108.271 269.69 108.915C268.76 109.82 268.28 111.175 267.182 111.861C265.959 112.625 264.385 112.327 262.99 112.006C262.863 111.992 262.746 111.931 262.662 111.835C262.633 111.789 262.613 111.739 262.601 111.686C262.14 109.995 261.839 108.19 262.311 106.496C262.693 105.054 263.607 103.825 264.339 102.55C265.071 101.276 265.139 99.9097 266.797 99.49Z" fill="#3F3D56"/>
<path d="M232.722 77.6092C231.246 77.7167 229.814 78.1535 228.529 78.8876C227.676 79.376 226.799 80.0324 225.823 79.9141C225.248 79.8492 224.68 79.5325 224.12 79.6851C223.804 79.8126 223.51 79.9876 223.247 80.2041C223.114 80.3104 222.955 80.3803 222.787 80.407C222.619 80.4338 222.446 80.4164 222.287 80.3567L221.906 85.638C221.761 87.6452 221.62 89.6944 222.1 91.652C222.348 92.6518 222.893 93.56 222.954 94.575C223.015 95.5901 222.923 96.6318 222.995 97.6583C223.064 98.6085 223.274 99.5434 223.327 100.494C223.434 102.287 222.992 104.065 222.565 105.809C221.921 108.381 221.532 111.01 220.278 113.338C219.927 113.983 219.516 114.639 219.516 115.372C219.516 115.464 219.516 115.551 219.539 115.639C219.158 115.849 218.803 116.048 218.479 116.254C217.755 116.723 216.981 117.246 216.684 118.059C216.444 118.719 216.555 119.474 216.265 120.112C215.975 120.749 215.312 121.203 215.167 121.89C215.064 122.39 215.263 122.916 215.167 123.416C215.081 123.675 215.011 123.939 214.958 124.206C214.92 124.778 215.404 125.24 215.884 125.553C216.584 126.015 217.357 126.356 218.171 126.561L220.446 117.517C222.52 113.676 224.246 109.657 225.602 105.508C225.99 104.151 226.489 102.829 227.093 101.554C227.524 100.833 227.906 100.084 228.236 99.3106C228.583 98.349 228.617 97.3073 228.785 96.2922C228.984 95.1075 229.283 93.942 229.68 92.8082C230.092 91.5833 230.568 90.3622 230.652 89.0762C230.778 87.2369 230.111 85.2946 230.82 83.5927C231.121 82.9556 231.512 82.3657 231.982 81.8411C232.966 80.6353 233.861 79.3722 234.845 78.1663C234.334 77.6207 233.484 77.5634 232.722 77.6092Z" fill="#3F3D56"/>
<g opacity="0.1">
<path opacity="0.1" d="M243.461 56.5031L242.985 56.5374L242.932 56.5756C243.11 56.5683 243.288 56.544 243.461 56.5031Z" fill="black"/>
<path opacity="0.1" d="M252.182 64.425C252.102 65.1837 251.938 65.9311 251.694 66.6535C251.536 67.092 251.409 67.5408 251.313 67.9967C251.236 68.4394 251.229 68.8897 251.16 69.3323C251.076 69.9063 250.877 70.4575 250.577 70.9536C250.277 71.4497 249.88 71.8806 249.411 72.221C249.277 72.3301 249.111 72.3907 248.938 72.3927C248.641 72.3584 248.458 72.0111 248.348 71.6982C247.742 69.9467 247.886 67.8059 246.77 66.4093C246.262 65.8459 245.648 65.3882 244.963 65.0623C244.684 64.882 244.37 64.7635 244.041 64.715C243.558 64.741 243.093 64.9111 242.707 65.2034C241.903 65.7437 241.01 66.1389 240.07 66.3711C239.6 66.4824 239.112 66.4874 238.641 66.3858C238.169 66.2841 237.727 66.0783 237.345 65.7835C236.819 65.3485 236.434 64.6959 235.851 64.3563C235.268 64.0167 234.658 64.0358 234.082 63.803C233.723 63.6493 233.403 63.4164 233.145 63.1218C232.888 62.8272 232.7 62.4783 232.596 62.1011C232.582 62.0535 232.572 62.005 232.565 61.9561C232.47 62.382 232.481 62.8249 232.596 63.2459C232.7 63.6231 232.888 63.972 233.145 64.2666C233.403 64.5612 233.723 64.794 234.082 64.9478C234.658 65.1806 235.306 65.1844 235.851 65.5011C236.396 65.8178 236.819 66.4932 237.345 66.9283C237.727 67.2231 238.169 67.4289 238.641 67.5306C239.112 67.6322 239.6 67.6272 240.07 67.5159C241.01 67.2837 241.903 66.8885 242.707 66.3482C243.093 66.0559 243.558 65.8858 244.041 65.8598C244.37 65.9083 244.684 66.0267 244.963 66.207C245.639 66.5393 246.244 67.0008 246.743 67.5655C247.86 68.9622 247.715 71.1029 248.321 72.8545C248.431 73.1712 248.614 73.5146 248.912 73.549C249.095 73.5499 249.272 73.4849 249.411 73.3658C249.882 73.0245 250.28 72.5919 250.581 72.0938C250.882 71.5956 251.081 71.042 251.164 70.4657C251.233 70.023 251.24 69.5727 251.316 69.1301C251.413 68.6742 251.54 68.2254 251.698 67.7869C252.069 66.7591 252.241 65.6699 252.204 64.5776C252.197 64.5318 252.189 64.4784 252.182 64.425Z" fill="black"/>
</g>
<path d="M228.068 95.0443L227.809 98.5283C227.771 99.0015 226.868 110.266 220.206 123.431C214.489 134.723 203.364 149.43 182.361 157.695C180.722 158.344 179.021 158.949 177.258 159.511L175.291 153.329C180.228 151.774 184.984 149.691 189.476 147.117C200.182 140.928 208.506 132.094 214.31 120.726C217.39 114.673 219.584 108.209 220.827 101.531H196.931V95.0443H228.068Z" fill="#FFD361"/>
<path opacity="0.1" d="M179.788 157.699C200.788 149.433 211.916 134.731 217.629 123.439C224.291 110.274 225.198 99.0168 225.233 98.536L225.492 95.052H228.16L227.901 98.536C227.866 99.0092 226.959 110.274 220.297 123.439C214.58 134.731 203.456 149.433 182.456 157.699C180.817 158.348 179.115 158.954 177.349 159.519L177.09 158.706C178.01 158.378 178.909 158.042 179.788 157.699Z" fill="white"/>
<path d="M137.743 153.329L135.777 159.511C134.011 158.947 132.308 158.34 130.67 157.691C109.67 149.426 98.5413 134.723 92.8283 123.431C86.1663 110.266 85.2593 99.0091 85.225 98.5283L84.9658 95.0443H116.088V101.531H92.188C93.4373 108.21 95.6386 114.674 98.7242 120.726C104.529 132.094 112.848 140.928 123.554 147.113C128.047 149.69 132.804 151.774 137.743 153.329Z" fill="#FFD361"/>
<path opacity="0.1" d="M133.238 157.699C112.239 149.433 101.11 134.731 95.397 123.439C88.7351 110.274 87.828 99.0168 87.7937 98.536L87.5345 95.052H84.8667L85.1259 98.536C85.1602 99.0092 86.0672 110.274 92.7292 123.439C98.446 134.731 109.571 149.433 130.57 157.699C132.209 158.348 133.912 158.954 135.677 159.519L135.937 158.706C135.019 158.378 134.12 158.042 133.238 157.699Z" fill="white"/>
<path d="M192.468 213.088V248.069H120.562V213.088L122.849 210.035C146.15 201.754 150.872 180.16 151.814 171.616C151.954 170.435 152.034 169.248 152.054 168.059H160.945C160.965 169.248 161.045 170.435 161.185 171.616C162.142 180.16 166.864 201.762 190.151 210.035L192.468 213.088Z" fill="#FFD361"/>
<path opacity="0.1" d="M192.468 213.088H120.562V217.476H192.468V213.088Z" fill="black"/>
<path opacity="0.1" d="M126.66 210.035C149.962 201.754 154.684 180.16 155.625 171.616C155.765 170.435 155.845 169.248 155.865 168.059H152.054C152.034 169.248 151.954 170.435 151.814 171.616C150.857 180.16 146.135 201.762 122.849 210.035L120.562 213.088V248.069H124.373V213.088L126.66 210.035Z" fill="white"/>
<path opacity="0.1" d="M109.639 95.0443H116.088V101.531H110.211C109.98 99.3945 109.789 97.2321 109.639 95.0443Z" fill="black"/>
<path opacity="0.1" d="M137.743 153.33L135.776 159.512C134.01 158.947 132.308 158.34 130.669 157.691C127.973 154.395 125.591 150.854 123.554 147.113C128.047 149.69 132.804 151.774 137.743 153.33Z" fill="black"/>
<path opacity="0.1" d="M175.287 153.329C180.224 151.774 184.98 149.691 189.472 147.117C187.434 150.858 185.052 154.4 182.357 157.699C180.718 158.347 179.017 158.953 177.254 159.515L175.287 153.329Z" fill="black"/>
<path opacity="0.1" d="M203.387 95.0443C203.237 97.2321 203.047 99.3945 202.815 101.531H196.942V95.0443H203.387Z" fill="black"/>
<path opacity="0.1" d="M161.201 171.616C158.106 172.216 154.924 172.216 151.829 171.616C151.969 170.435 152.049 169.248 152.069 168.059H160.961C160.981 169.248 161.061 170.435 161.201 171.616Z" fill="black"/>
<path d="M110.401 84.2986C110.565 132.403 131.146 171.303 156.517 171.303C181.888 171.303 202.464 132.403 202.632 84.2986H110.401Z" fill="#FFD361"/>
<path opacity="0.1" d="M118.595 84.2986H110.401C110.565 132.403 131.146 171.303 156.517 171.303C157.89 171.3 159.26 171.184 160.614 170.956C137.16 167.033 118.752 129.785 118.595 84.2986Z" fill="white"/>
<path d="M180.97 226.478H132.061V239.071H180.97V226.478Z" fill="#F86D70"/>
<path opacity="0.1" d="M134.347 228.195H180.97V226.478H132.061V239.071H134.347V228.195Z" fill="white"/>
<path d="M84.3178 130.743C83.4374 130.449 78.2542 126.343 77.8616 124.485C77.4691 122.626 80.6019 105.313 80.6019 105.313C80.6019 105.313 80.3122 105.313 79.8396 105.256V104.977L80.4837 82.2342C80.4837 82.2342 83.1249 66.9703 78.136 67.8594C73.1472 68.7485 76.2762 82.2342 76.2762 82.2342C76.2762 82.2342 75.7083 89.08 75.3081 91.133C74.927 93.1135 73.1815 101.18 74.3706 103.688C74.4141 103.777 74.4625 103.863 74.5154 103.947C74.5154 103.947 74.7136 112.552 72.5603 113.727C70.506 114.845 69.6523 120.474 69.5799 120.978L69.4694 120.932C68.8561 120.548 68.3176 120.055 67.8801 119.478C67.8344 119.421 67.8001 119.36 67.7582 119.299C69.1604 117.719 69.9161 115.668 69.8744 113.555C69.8327 111.443 68.9967 109.423 67.5333 107.9C66.8529 107.193 66.0546 106.609 65.1742 106.176C65.1486 105.446 64.9762 104.73 64.6673 104.069C63.6764 101.947 58.1883 99.1733 54.2894 99.1084C52.4905 99.055 51.0156 99.5663 50.4782 100.974C50.2038 101.688 50.2877 102.501 50.1733 103.241C49.9447 104.768 48.9652 105.962 47.7075 106.912C47.1996 106.344 46.6506 105.815 46.0649 105.328C44.7919 104.352 42.2537 101.131 42.2537 101.131C42.2537 101.131 34.3302 92.9151 33.7433 90.6637C33.1564 88.4122 25.2405 74.8923 23.4798 77.2467C21.719 79.6012 29.5434 89.8623 29.5434 89.8623C29.5434 89.8623 31.0297 93.5905 32.1731 94.8498C33.3164 96.1091 42.0822 108.854 42.0822 108.854L42.5014 109.724C40.6492 110.701 38.957 111.945 38.3587 113.884C37.4821 116.738 39.3991 119.608 40.7254 122.279C43.3094 127.492 43.6791 134.139 40.3443 138.901C37.3563 143.107 32.1731 145.106 27.3214 146.854C29.6645 148.696 32.5754 149.664 35.5536 149.59C34.4331 152.841 30.4619 153.917 27.0775 154.52C28.8535 156.23 31.3956 156.852 33.8348 157.23C35.0294 157.433 36.2399 157.529 37.4516 157.516H37.7489L38.0461 157.493C38.4592 157.465 38.8703 157.413 39.2772 157.336C41.0379 156.978 42.7491 156.016 43.6486 154.459C44.4108 153.127 44.6776 151.311 46.0611 150.643C46.4213 150.48 46.8095 150.388 47.2044 150.372H47.1625C47.4217 150.372 47.6885 150.372 47.9476 150.372L53.7139 150.429C53.954 150.429 54.2018 150.429 54.4495 150.429C56.0769 150.391 57.8148 150.109 58.6418 148.762C58.982 148.108 59.161 147.382 59.1639 146.644C59.2859 144.816 59.1639 142.935 59.2135 141.092C59.7051 144.446 60.2196 149.674 58.9963 151.605C58.0023 153.068 56.7977 154.376 55.4214 155.486C55.0752 155.777 54.7586 156.101 54.4762 156.455C54.2894 156.588 54.1789 156.661 54.1789 156.661L54.0608 157.016C53.6264 157.675 53.3116 158.407 53.1308 159.176C53.0643 159.373 53.0396 159.582 53.0584 159.79C53.1918 160.061 52.1056 161.179 52.4219 161.648C49.7084 164.835 49.1939 169.662 49.1939 169.662L44.2393 177.195C41.6934 183.892 37.8823 184.579 37.8823 184.579C37.8823 184.579 28.9298 178.565 28.6859 178.271C28.4419 177.977 25.0195 176.508 25.0195 176.508C24.616 175.799 23.9999 175.236 23.2587 174.897C22.0849 174.409 21.9858 172.608 21.9858 172.608C21.841 168.353 19.3446 168.029 19.3446 168.029C17.3323 167.857 15.7964 168.216 14.6149 168.872L14.2567 168.899C12.5264 169.04 10.4455 169.196 8.15879 169.349C1.79791 169.769 0.284867 173.894 0.284867 173.894C0.284867 173.894 -0.496427 174.775 0.528783 175.729C1.55399 176.683 8.11686 175.729 8.39508 175.706C7.89491 175.761 7.38911 175.726 6.90109 175.603C7.93393 175.565 9.3555 175.527 10.5675 175.527H10.8609C10.7846 176.17 10.7477 176.818 10.7504 177.466C10.7504 178.687 14.1233 179.469 14.1233 179.469L24.3945 188.627C24.3945 188.627 30.8506 191.516 34.9591 195.672C39.0675 199.827 42.6996 196.24 42.6996 196.24C47.0482 195.164 59.5603 180.019 59.5717 180.003C59.5717 180.446 59.8347 195.176 60.334 198.133C60.3538 198.283 60.3909 198.43 60.4445 198.572C61.0314 199.842 60.2463 203.315 59.9071 204.78C59.6908 206.007 59.6077 207.253 59.6594 208.497C59.6594 208.497 54.9678 226.432 55.3566 228.008C55.7453 229.584 52.8145 236.907 52.8145 236.907V243.013L53.3252 242.986C53.2588 243.084 53.1977 243.186 53.1423 243.291L53.108 243.356C53.108 243.356 56.2369 244.039 58.3407 243.844C60.4445 243.65 64.0575 245.466 64.0575 245.466C64.0575 245.466 65.2809 246.046 69.0464 246.291C72.8118 246.535 72.8118 244.627 72.8118 244.627C72.3811 242.028 66.4319 241.158 66.2489 241.131C65.7687 240.83 65.319 240.502 64.9493 240.219L64.8731 240.158C64.898 240.101 64.9197 240.042 64.9379 239.983C65.5744 237.388 62.0528 236.262 62.0528 236.262V235.629C64.3395 234.453 64.7931 226.386 64.7931 226.386C64.7931 226.386 68.2231 216.411 68.7033 214.748C69.1836 213.084 68.7033 210.592 68.7033 210.592L69.0464 208.44C69.0464 208.44 69.7819 206.975 69.7819 206.681C69.8771 205.936 70.1634 205.229 70.6127 204.628C71.1501 203.99 70.0258 202.476 70.0258 202.476L71.0053 199.934V197.145L73.292 187.025C73.292 187.025 75.6893 175.237 74.8584 171.379C74.0276 167.521 75.8379 165.56 75.8379 165.56C75.6747 165.646 75.5067 165.722 75.3348 165.789C75.5637 165.259 75.7609 164.716 75.9255 164.163L81.0707 164.8V164.877H82.9267C82.9267 164.877 82.3398 157.626 82.3398 154.703C82.3398 151.78 84.3178 141.29 84.3178 141.29C84.3178 141.29 85.1982 131.037 84.3178 130.743ZM61.4773 122.279C61.4773 122.565 61.4506 122.863 61.4316 123.168L61.3287 123.325L61.1381 123.164L60.9057 123.527L60.837 123.561C60.334 123.302 60.0748 121.817 59.7128 122.138L59.6632 122.18C59.5832 122.088 59.5031 122.061 59.4193 122.138L59.3431 122.203C59.3431 122.092 59.3431 121.978 59.3431 121.863C60.0403 122.043 60.7574 122.134 61.4773 122.134C61.4811 122.184 61.4773 122.233 61.4773 122.279ZM78.5896 156.043H78.7001L78.5172 156.524C78.54 156.363 78.5629 156.207 78.5896 156.043ZM59.8042 242.578L59.103 242.402L59.4841 242.337L59.8385 242.57L59.8804 242.6L59.8042 242.578ZM66.9693 241.551C66.7368 241.429 66.5005 241.288 66.2718 241.143C66.348 241.185 66.6491 241.341 66.9693 241.551Z" fill="url(#paint1_linear)"/>
<path d="M81.12 148.834L76.5046 160.878H77.6251L73.2842 164.342L81.12 165.319V148.834Z" fill="#F86D70"/>
<path opacity="0.1" d="M81.12 148.834L76.5046 160.878L75.3422 160.565L73.2842 164.342L81.12 165.319V148.834Z" fill="black"/>
<path d="M73.8828 156.539H81.1203L83.7767 134.654H73.8828V156.539Z" fill="#F86D70"/>
<path opacity="0.1" d="M73.8828 156.539H81.1203L83.7767 134.654H73.8828V156.539Z" fill="black"/>
<path d="M59.7471 139.836L61.3097 139.573L64.8998 138.962C64.8998 138.962 75.6817 136.528 77.9074 136.329C79.2557 136.151 80.5706 135.776 81.8101 135.215C82.3932 134.963 82.7628 134.772 82.7628 134.772L78.8792 127.671L72.8538 123.199C72.8538 123.199 69.0426 122.386 67.4304 120.165C67.0707 119.687 66.8364 119.126 66.7492 118.534C66.6619 117.942 66.7245 117.338 66.9312 116.776C67.9145 113.724 61.0581 119.696 61.0581 119.696C61.0581 119.696 61.1229 121.127 61.0581 122.951C61.0581 123.309 61.0238 123.683 60.9972 124.065C60.9972 124.317 60.9629 124.569 60.9362 124.828C60.7685 126.641 60.4255 128.507 59.7471 129.621C58.0892 132.346 59.7471 139.836 59.7471 139.836Z" fill="#FFC896"/>
<path opacity="0.1" d="M61.0581 123.103H61.2106C61.485 123.103 61.706 122.519 61.9728 122.493C64.1185 122.287 66.0774 121.836 67.438 120.314C67.0792 119.836 66.8455 119.276 66.7583 118.685C66.6711 118.094 66.7332 117.49 66.9388 116.929C67.9221 113.876 61.0657 119.844 61.0657 119.844C61.0657 119.844 61.1381 121.279 61.0581 123.103Z" fill="black"/>
<path d="M52.7114 114.449C52.7109 115.547 52.9267 116.635 53.3463 117.65C53.766 118.665 54.3813 119.588 55.1572 120.364C55.933 121.141 56.8542 121.757 57.868 122.178C58.8818 122.598 59.9683 122.814 61.0655 122.813C61.34 122.813 61.6106 122.813 61.8811 122.775C63.4909 122.617 65.0201 121.994 66.2833 120.983C67.5465 119.971 68.4892 118.615 68.9971 117.077C69.505 115.539 69.5562 113.887 69.1445 112.321C68.7328 110.755 67.8758 109.342 66.6777 108.254C65.4796 107.166 63.9918 106.45 62.395 106.192C60.7982 105.935 59.1609 106.147 57.6821 106.803C56.2032 107.458 54.9463 108.53 54.064 109.887C53.1816 111.245 52.7118 112.829 52.7114 114.449Z" fill="#FFC896"/>
<path d="M50.1469 101.753C49.8725 102.463 49.9563 103.256 49.8458 104.008C49.438 106.721 46.6825 108.347 44.19 109.484C41.6975 110.621 38.8848 111.968 38.0921 114.59C37.2231 117.425 39.1211 120.268 40.4398 122.928C43.0085 128.11 43.3744 134.719 40.0587 139.459C37.1126 143.656 31.9789 145.648 27.1464 147.396C29.4722 149.228 32.3629 150.191 35.3214 150.12C34.2123 153.352 30.2677 154.425 26.9062 155.02C28.6708 156.722 31.1977 157.34 33.6178 157.714C35.3823 157.989 37.1927 158.168 38.9534 157.813C40.7142 157.458 42.3835 156.501 43.2906 154.951C44.0528 153.627 44.3119 151.822 45.6878 151.154C46.3088 150.91 46.9779 150.812 47.6429 150.868L53.3597 150.929C55.1395 150.929 57.2471 150.792 58.1656 149.269C58.5044 148.619 58.6822 147.897 58.6839 147.163C58.9317 143.408 58.2114 139.439 59.7549 136.013C60.2198 134.979 57.2357 133.342 57.5482 132.246C58.623 128.48 58.8936 125.515 58.8821 121.596C58.8821 118.562 60.8525 115.948 62.4799 113.388C64.1073 110.827 65.4679 107.595 64.1835 104.848C62.7352 101.783 51.8581 97.3302 50.1469 101.753Z" fill="#3F3D56"/>
<path d="M57.7578 241.479L59.2137 242.444L59.4385 242.593L59.4805 242.62L61.2069 243.764L65.2392 244.444L68.7836 244.199C68.7836 244.199 69.805 242.062 68.2005 242.112C67.6865 242.086 67.1857 241.941 66.737 241.688L66.5159 241.578C66.2834 241.456 66.051 241.318 65.8223 241.173C65.3459 240.872 64.8962 240.544 64.5341 240.265C64.0005 239.853 63.6461 239.54 63.6461 239.54L57.7578 241.479Z" fill="#FFC896"/>
<path opacity="0.1" d="M59.2324 242.444L59.4573 242.593L59.4992 242.62L61.2257 243.764L65.2579 244.444L68.8023 244.199C68.8023 244.199 69.8237 242.062 68.2192 242.112C67.7053 242.086 67.2044 241.941 66.7557 241.688C67.0377 241.91 67.274 242.15 67.2969 242.352C67.3617 242.898 64.6748 243.879 64.6748 243.879L60.8865 242.875C60.8865 242.875 60.2424 242.692 59.362 242.463L59.2782 242.44L59.2324 242.444Z" fill="black"/>
<path d="M52.7534 243.375C52.7534 243.375 55.8595 244.054 57.9481 243.86C60.0366 243.665 63.6344 245.466 63.6344 245.466C63.6344 245.466 64.8501 246.039 68.5889 246.283C72.3277 246.527 72.3277 244.627 72.3277 244.627C71.9008 242.043 65.9935 241.192 65.8105 241.154C65.883 241.192 66.1917 241.349 66.5042 241.559C66.9234 241.834 67.3769 242.192 67.4112 242.482C67.476 243.024 64.7891 244.009 64.7891 244.009L61.0008 243.009C61.0008 243.009 60.3567 242.822 59.4764 242.593H59.3925C58.0871 242.237 56.7608 241.963 55.4212 241.772C53.7901 241.597 52.9554 242.986 52.7839 243.299C52.7715 243.323 52.7613 243.349 52.7534 243.375Z" fill="#3F3D56"/>
<path d="M3.79492 174.752L5.44517 176.019C5.44517 176.019 5.92538 175.996 6.64188 175.974H6.87056C7.89577 175.935 9.30972 175.897 10.5102 175.897C11.2863 175.862 12.0639 175.906 12.8313 176.027C13.6545 176.317 15.118 171.31 15.118 171.31L13.4639 170.929L12.9151 170.799L12.534 170.707L11.1886 170.391L7.11066 170.856L4.24465 172.703L3.79492 174.752Z" fill="#FFC896"/>
<path opacity="0.1" d="M3.79492 174.752L5.44517 176.019C5.44517 176.019 5.92538 175.996 6.64188 175.974C6.31309 175.847 6.042 175.604 5.87964 175.29C4.81251 172.325 10.1063 171.059 10.1063 171.059L12.5721 170.952L13.0523 170.929H13.4334L12.8846 170.799L12.5035 170.707L11.1581 170.391L7.08017 170.856L4.21415 172.703L3.79492 174.752Z" fill="black"/>
<path d="M0.540349 176.092C1.53888 177.015 8.07889 176.092 8.35329 176.069C7.85696 176.125 7.35459 176.09 6.87074 175.966C6.63119 175.923 6.40424 175.827 6.20643 175.685C6.00863 175.543 5.84497 175.359 5.72738 175.146C4.66025 172.177 9.95399 170.914 9.95399 170.914L12.4198 170.807L12.8962 170.784L18.8912 170.524L19.1809 168.872C19.1809 168.872 17.2334 169.055 14.1768 169.299C12.4579 169.441 10.3656 169.597 8.10557 169.746C1.79042 170.166 0.288809 174.268 0.288809 174.268C0.288809 174.268 -0.477239 175.146 0.540349 176.092Z" fill="#3F3D56"/>
<path d="M73.8868 104.466C73.9273 104.557 73.9758 104.643 74.0316 104.726L75.4875 106.862L79.2758 107.244L79.3177 105.741L79.9542 83.1195C79.9542 83.1195 82.5763 67.9472 77.6217 68.821C72.6672 69.6949 75.7771 83.1195 75.7771 83.1195C75.7771 83.1195 75.2131 89.9272 74.8167 91.9725C74.4318 93.9492 72.7053 101.986 73.8868 104.466Z" fill="#FFC896"/>
<path d="M65.3838 160.652L66.4624 162.499L68.8748 166.632C68.8748 166.632 73.2501 168.239 74.3706 167.014C74.9842 166.346 75.6473 164.014 76.1123 162.053C76.4934 160.466 76.7488 159.126 76.7488 159.126L65.3838 160.652Z" fill="#FFC896"/>
<path opacity="0.1" d="M65.3838 160.652L66.4624 162.499C66.53 162.441 66.5913 162.376 66.6453 162.305C67.8649 160.748 73.2349 161.973 76.1123 162.072C76.4934 160.485 76.7488 159.145 76.7488 159.145L65.3838 160.652Z" fill="black"/>
<path opacity="0.1" d="M10.5103 175.89C11.2863 175.855 12.0639 175.898 12.8313 176.019C13.6545 176.309 15.118 171.303 15.118 171.303L12.9151 170.784L18.9101 170.524L19.1998 168.872C19.1998 168.872 17.2522 169.055 14.1957 169.299C13.5641 169.664 13.0005 170.135 12.5302 170.692L12.4387 170.807C11.162 172.375 10.6894 174.398 10.5103 175.89Z" fill="black"/>
<path opacity="0.1" d="M57.7578 241.479L59.4386 242.593C61.9463 242.139 64.2368 241.425 64.5074 240.303C64.5087 240.285 64.5087 240.268 64.5074 240.25C63.9739 239.838 63.6194 239.525 63.6194 239.525L57.7578 241.479Z" fill="black"/>
<path opacity="0.1" d="M52.7876 243.31C55.0022 243.2 57.2086 242.963 59.3962 242.6C58.0897 242.242 56.7621 241.965 55.4211 241.772C53.7938 241.597 52.9591 242.986 52.7876 243.31Z" fill="black"/>
<path d="M10.6934 177.817C10.6934 179.034 14.0434 179.812 14.0434 179.812L24.2459 188.906C24.2459 188.906 30.6564 191.776 34.7343 195.908C38.8123 200.041 42.4101 196.492 42.4101 196.492C46.732 195.424 59.1793 180.347 59.1793 180.347C59.1793 180.347 59.4689 197.564 60.0521 198.827C60.6352 200.091 59.8577 203.544 59.5185 205.006C59.3045 206.224 59.2227 207.463 59.2746 208.699C59.2746 208.699 54.6135 226.547 55.0022 228.104C55.391 229.661 52.4754 236.957 52.4754 236.957V243.036C52.4754 243.036 63.8899 242.597 64.5188 240.021C65.1476 237.445 61.6566 236.323 61.6566 236.323V235.69C63.9433 234.522 64.3739 226.501 64.3739 226.501C64.3739 226.501 67.7773 216.579 68.2614 214.927C68.7454 213.275 68.2614 210.791 68.2614 210.791L68.6005 208.654C68.6005 208.654 69.3285 207.192 69.3285 206.902C69.4236 206.162 69.7085 205.458 70.1555 204.861C70.6891 204.227 69.5724 202.72 69.5724 202.72L70.5443 200.19V197.419L72.831 187.353C72.831 187.353 75.213 175.63 74.3859 171.787C73.5589 167.945 75.3578 166.002 75.3578 166.002C71.4589 168.048 69.4924 163.495 68.8483 161.538C68.6844 161.034 68.6044 160.698 68.6044 160.698C68.6044 160.698 63.2496 158.722 58.2646 159.195C57.2522 159.277 56.2545 159.489 55.2957 159.824C49.758 161.82 48.8853 170.086 48.8853 170.086L43.9803 177.576C41.4535 184.239 37.6651 184.918 37.6651 184.918C37.6651 184.918 28.7775 178.939 28.5183 178.645C28.2591 178.351 24.8748 176.893 24.8748 176.893C24.4746 176.188 23.8625 175.627 23.1255 175.291C21.9592 174.802 21.864 173.001 21.864 173.001C21.7191 168.769 19.2419 168.422 19.2419 168.422C10.6438 167.704 10.6934 176.603 10.6934 177.817Z" fill="#3F3D56"/>
<path d="M60.1396 154.039H65.3838V137.749H60.1396V154.039Z" fill="#F86D70"/>
<path opacity="0.1" d="M60.1396 154.039H65.3838V137.749H60.1396V154.039Z" fill="black"/>
<path opacity="0.1" d="M73.8825 104.432C73.8816 104.443 73.8816 104.455 73.8825 104.466C73.923 104.557 73.9715 104.643 74.0273 104.725L75.4832 106.862L79.2715 107.244L79.3134 105.741C78.1319 105.649 75.4412 105.325 73.8825 104.432Z" fill="black"/>
<path d="M74.0313 104.725C74.0313 104.725 74.2256 113.281 72.0876 114.449C69.9495 115.616 69.1187 121.699 69.1187 121.699C69.1187 121.699 75.5977 125.965 77.0421 127.843C78.4865 129.72 81.8023 134.192 81.1201 135.261C80.4379 136.329 82.7741 141.195 82.7741 141.195C82.7741 141.195 78.498 149.949 79.4698 153.257C80.4417 156.565 80.537 165.316 80.537 165.316H82.3854C82.3854 165.316 81.8023 158.119 81.8023 155.199C81.8023 152.28 83.7422 141.874 83.7422 141.874C83.7422 141.874 84.6187 131.662 83.7422 131.372C82.8656 131.082 77.7205 126.995 77.3317 125.145C76.943 123.294 80.0529 106.065 80.0529 106.065C80.0529 106.065 76.0702 105.893 74.0313 104.725Z" fill="#F86D70"/>
<path opacity="0.1" d="M60.0405 136.238C60.2178 137.428 60.6508 138.566 61.3097 139.573L64.8998 138.962C64.8998 138.962 75.6816 136.528 77.9074 136.329C79.2557 136.151 80.5706 135.776 81.81 135.215C80.9558 132.184 79.2883 129.446 76.9889 127.297L75.6207 126.026C73.6045 124.152 71.2678 122.657 68.7224 121.611C68.8825 121.745 80.1941 131.414 77.7168 133.311C75.2395 135.208 68.57 130.59 68.57 130.59L60.9857 124.065L60.7113 123.828L60.273 124.511C60.496 124.603 60.7136 124.708 60.9247 124.824C63.5096 126.245 65.4278 128.632 66.2604 131.464C67.8192 136.711 60.0405 136.238 60.0405 136.238Z" fill="black"/>
<path d="M57.708 160.553C57.708 160.553 64.8959 164.541 66.6414 162.305C67.0225 161.812 67.8267 161.599 68.829 161.542C68.6652 161.038 68.5851 160.702 68.5851 160.702C68.5851 160.702 63.2304 158.725 58.2454 159.199C57.9176 160.023 57.708 160.553 57.708 160.553Z" fill="#444053"/>
<path d="M61.0161 123.836L68.8748 130.605C68.8748 130.605 75.5177 135.238 78.0216 133.326C80.5256 131.414 69.0234 121.623 69.0234 121.623C71.5634 122.671 73.8976 124.162 75.9179 126.026L77.2861 127.297C80.8838 130.636 81.6956 130.636 81.8176 135.543C81.8481 136.753 81.4365 138.489 81.1201 138.802C79.9539 139.947 79.1383 148.262 79.3174 149.235C79.4966 150.208 77.1451 158.607 77.9073 160.942C78.6695 163.278 68.3793 159.775 66.6376 162.015C64.8959 164.255 57.708 160.263 57.708 160.263C57.708 160.263 61.6907 150.048 62.6625 149.369C63.6344 148.689 64.8006 143.435 62.6625 141.004C60.5245 138.573 60.3339 136.238 60.3339 136.238C60.3339 136.238 68.1087 136.719 66.55 131.472C66.1114 129.951 65.3506 128.543 64.3194 127.343C63.2881 126.143 62.0106 125.18 60.574 124.519L61.0161 123.836Z" fill="#E8E8F0"/>
<path opacity="0.1" d="M71.5046 141.054C71.5046 141.054 68.4899 146.743 64.5911 148.22C64.4653 148.266 64.3433 148.308 64.21 148.346C60.1396 149.586 71.8095 142.817 71.5046 141.054Z" fill="black"/>
<path d="M29.3452 90.7171C29.3452 90.7171 30.8011 94.4148 31.9673 95.6779C33.1335 96.941 41.7773 109.587 41.7773 109.587L42.5091 111.113L43.1379 112.415L48.6756 111.831L49.0567 109.595L48.8432 109.335C48.2868 108.667 46.77 106.874 45.7524 106.092C44.4909 105.122 41.9641 101.913 41.9641 101.913C41.9641 101.913 34.0978 93.7394 33.5146 91.5032C32.9315 89.267 25.0614 75.8577 23.3159 78.1778C21.5704 80.4979 29.3452 90.7171 29.3452 90.7171Z" fill="#FFC896"/>
<g opacity="0.1">
<path opacity="0.1" d="M45.4133 150.868C44.7486 150.811 44.0795 150.907 43.4581 151.151C42.0861 151.818 41.8269 153.623 41.0647 154.947C40.1729 156.497 38.4731 157.455 36.7238 157.809C36.376 157.877 36.0249 157.925 35.6719 157.954C36.786 158.063 37.9099 158.014 39.0105 157.809C40.7598 157.455 42.4596 156.497 43.3514 154.947C44.1137 153.623 44.3728 151.818 45.7448 151.151C46.1051 150.988 46.4934 150.898 46.8882 150.883L45.4133 150.868Z" fill="black"/>
<path opacity="0.1" d="M58.9507 121.596C58.9507 118.562 60.9211 115.948 62.5446 113.388C64.1682 110.827 65.5326 107.595 64.2482 104.848C63.1506 102.501 56.5344 99.3526 52.7156 99.9746C56.4543 100.459 61.0621 102.924 61.9615 104.848C63.2459 107.595 61.8815 110.827 60.2579 113.388C58.6343 115.948 56.6563 118.562 56.664 121.596C56.664 125.511 56.401 128.465 55.3262 132.246C55.0175 133.334 57.9941 134.979 57.5367 136.009C55.9894 139.443 56.7135 143.404 56.4658 147.159C56.4606 147.893 56.2817 148.615 55.9436 149.266C55.1814 150.521 53.6188 150.845 52.0981 150.914H53.4282C55.2043 150.914 57.3119 150.777 58.2304 149.254C58.5684 148.603 58.7473 147.881 58.7525 147.148C59.0002 143.393 58.2761 139.428 59.8234 135.997C60.2884 134.967 57.3042 133.326 57.6129 132.235C58.6877 128.48 58.9583 125.511 58.9507 121.596Z" fill="black"/>
</g>
<path opacity="0.1" d="M42.5088 111.106L43.1376 112.407L48.6753 111.823L49.0564 109.587L48.843 109.328C48.2523 109.618 43.8275 111.751 42.5088 111.106Z" fill="black"/>
<path opacity="0.1" d="M62.9559 125.732C62.9559 125.732 61.5953 123.595 60.8178 124.175C60.0403 124.756 59.7392 122.424 59.2933 122.813C58.8474 123.202 57.5478 124.286 57.0066 122.771C56.5836 121.565 51.9797 113.937 50.1122 110.869C49.632 110.075 49.3309 109.587 49.3309 109.587C49.3309 109.587 44.0867 112.212 42.8252 111.339V113.185L43.8923 113.285L49.6091 123.969C49.6091 123.969 51.408 126.835 51.286 127.835C51.1641 128.835 53.5918 133.212 53.9805 133.502C54.3693 133.792 58.554 138.657 58.554 138.657C58.554 138.657 60.692 149.163 58.8436 152.082C56.9952 155.001 53.7938 157.138 53.7938 157.138C53.7938 157.138 52.8296 159.958 52.9706 160.252C53.1116 160.546 51.8501 161.809 52.4332 162.198C53.0163 162.587 53.7938 165.308 53.7938 165.308C53.7938 165.308 56.515 160.931 57.9861 160.252C59.4572 159.572 61.3399 150.62 61.3399 150.62C61.3399 150.62 61.8773 145.347 61.9192 141.943C61.9612 138.539 61.7897 125.732 62.9559 125.732Z" fill="black"/>
<path d="M62.6624 125.732C62.6624 125.732 61.3056 123.595 60.5282 124.176C59.7507 124.756 59.4458 122.424 59.0037 122.813C58.5616 123.202 57.262 124.286 56.717 122.771C56.2901 121.565 51.6862 113.937 49.8225 110.869L49.0413 109.587C49.0413 109.587 43.7971 112.212 42.5317 111.339V113.185L43.6027 113.285L49.3195 123.969C49.3195 123.969 51.1222 126.835 50.9964 127.835C50.8706 128.835 53.2831 133.212 53.6909 133.502C54.0987 133.792 58.2643 138.657 58.2643 138.657C58.2643 138.657 60.4024 149.163 58.5578 152.082C57.5833 153.548 56.398 154.862 55.0401 155.982C53.8994 156.924 53.0966 158.213 52.7533 159.653C52.6872 159.849 52.6638 160.057 52.6847 160.263C52.8258 160.553 51.5643 161.82 52.1474 162.209C52.7305 162.599 53.5156 165.331 53.5156 165.331C53.5156 165.331 56.2368 160.954 57.7079 160.275C59.179 159.595 61.0655 150.643 61.0655 150.643C61.0655 150.643 61.5991 145.369 61.6448 141.966C61.6906 138.562 61.5191 125.732 62.6624 125.732Z" fill="#F86D70"/>
<path opacity="0.1" d="M49.3538 169.99C49.3538 169.99 53.4355 170.753 55.0705 171.932C56.7055 173.112 48.8545 170.086 48.8545 170.086L49.3538 169.99Z" fill="black"/>
<path opacity="0.1" d="M59.1675 180.347C59.1675 180.347 63.4246 183.899 62.6623 187.109C61.9001 190.318 59.9335 198.392 59.9335 198.392L59.1675 180.347Z" fill="black"/>
<path opacity="0.1" d="M21.9363 173.516C21.9363 173.516 15.9375 174.172 16.3262 174.951C16.715 175.729 21.9363 174.234 21.9363 174.234V173.516Z" fill="black"/>
<path opacity="0.1" d="M67.9983 203.059C67.9983 203.059 68.3794 203.544 66.1537 203.059C63.9279 202.575 65.5706 201.079 65.5706 201.079L67.9983 203.059Z" fill="black"/>
<path opacity="0.1" d="M67.2359 209.772C67.2359 209.772 64.1869 210.256 62.552 209.772C60.917 209.287 67.2359 209.772 67.2359 209.772Z" fill="black"/>
<path opacity="0.1" d="M60.9627 236.033C60.9627 236.033 60.4291 235.449 57.7574 236.518C55.0858 237.586 54.0187 237.636 53.2412 237.281C52.4637 236.926 60.9627 236.033 60.9627 236.033Z" fill="black"/>
<path opacity="0.1" d="M63.928 172.688L60.1396 177.965C60.1396 177.965 62.1786 173.344 63.928 172.688Z" fill="black"/>
<path opacity="0.1" d="M56.5646 124.176C56.5646 124.176 56.4007 125.927 53.9577 126.61C51.5148 127.293 51.0498 127.847 51.0498 127.847" fill="black"/>
<path opacity="0.1" d="M50.215 111.48C50.215 111.48 46.9908 113.769 43.6255 113.285L50.215 111.48Z" fill="black"/>
<path opacity="0.1" d="M52.6694 160.504C52.6694 160.504 53.6108 161.095 55.8708 158.508L52.6694 160.504Z" fill="black"/>
<path opacity="0.1" d="M76.1426 133.071C76.234 132.597 75.9063 132.159 75.5976 131.788L74.9649 131.025C74.8413 130.869 74.7021 130.726 74.5495 130.598C74.1684 130.304 73.6805 130.216 73.2842 129.953" fill="black"/>
<path d="M280.773 0.0418355C280.773 0.0418355 248.687 -1.89668 252.46 20.6176C252.46 20.6176 251.698 24.5976 255.311 26.4026C255.311 26.4026 255.368 24.735 258.603 25.3036C259.755 25.4948 260.926 25.5511 262.091 25.4715C263.665 25.3627 265.16 24.7438 266.352 23.7085C266.352 23.7085 275.373 19.9765 278.879 5.2163C278.879 5.2163 281.474 1.99562 281.372 1.16755L275.956 3.48384C275.956 3.48384 277.808 7.39522 276.337 10.6464C276.337 10.6464 276.162 3.62504 275.121 3.77768C274.912 3.81202 272.309 5.13235 272.309 5.13235C272.309 5.13235 275.491 11.9439 273.09 16.897C273.09 16.897 274.001 8.50185 271.314 5.62461L267.503 7.85314C267.503 7.85314 271.222 14.8898 268.699 20.6328C268.699 20.6328 269.347 11.8256 266.698 8.39501L263.246 11.0929C263.246 11.0929 266.74 18.0303 264.61 22.7927C264.61 22.7927 264.332 12.5392 262.499 11.7645C262.499 11.7645 259.476 14.4357 259.015 15.5271C259.015 15.5271 261.409 20.5641 259.922 23.2201C259.922 23.2201 259.011 16.3895 258.264 16.3513C258.264 16.3513 255.253 20.8771 254.941 23.9833C254.941 23.9833 255.071 19.3698 257.536 15.9239C257.536 15.9239 254.625 16.4238 252.925 18.3127C252.925 18.3127 253.394 15.1149 258.28 14.8364C258.28 14.8364 260.768 11.402 261.431 11.1921C261.431 11.1921 256.576 10.7876 253.63 12.0927C253.63 12.0927 256.221 9.07425 262.323 10.448L265.734 7.65852C265.734 7.65852 259.339 6.78467 256.625 7.75011C256.625 7.75011 259.747 5.07892 266.653 7.02507L270.365 4.80417C270.365 4.80417 264.911 3.62885 261.664 4.04098C261.664 4.04098 265.094 2.19023 271.455 4.19744L274.123 3.00303C274.123 3.00303 270.129 2.21694 268.958 2.09102C267.788 1.96509 267.727 1.64455 267.727 1.64455C270.258 1.22206 272.856 1.51138 275.232 2.48025C275.232 2.48025 280.872 0.396721 280.773 0.0418355Z" fill="#4DC274"/>
<path d="M241.198 5.76962C241.198 5.76962 226.715 4.89194 228.411 15.0653C228.411 15.0653 228.072 16.8665 229.695 17.6831C229.695 17.6831 229.722 16.9199 231.186 17.1832C231.705 17.2708 232.234 17.2964 232.76 17.2595C233.471 17.2111 234.147 16.931 234.684 16.462C234.684 16.462 238.762 14.7791 240.348 8.10881C240.348 8.10881 241.518 6.65111 241.472 6.27714L239.025 7.32271C239.025 7.32271 239.864 9.09333 239.204 10.5625C239.204 10.5625 239.124 7.38759 238.656 7.46391C238.56 7.46391 237.383 8.07446 237.383 8.07446C237.383 8.07446 238.823 11.154 237.737 13.3939C237.737 13.3939 238.149 9.60086 236.933 8.29961L235.21 9.30703C235.21 9.30703 236.895 12.4857 235.751 15.0806C235.751 15.0806 236.045 11.1005 234.848 9.55125L233.289 10.7838C233.289 10.7838 234.867 13.9205 233.907 16.0689C233.907 16.0689 233.781 11.4363 232.95 11.0891C232.95 11.0891 231.586 12.2949 231.376 12.791C231.376 12.791 232.459 15.0806 231.788 16.2635C231.788 16.2635 231.376 13.1764 231.026 13.165C231.026 13.165 229.669 15.2103 229.524 16.5994C229.592 15.303 229.997 14.0469 230.698 12.9551C229.913 13.104 229.188 13.4794 228.613 14.035C228.613 14.035 228.826 12.5926 231.033 12.4628C231.033 12.4628 232.177 10.9135 232.459 10.8181C232.459 10.8181 230.263 10.635 228.933 11.2265C228.933 11.2265 230.103 9.86034 232.863 10.4633L234.387 9.20399C234.387 9.20399 231.498 8.8224 230.271 9.24597C230.271 9.24597 231.681 8.04012 234.802 8.91779L236.479 7.91419C236.479 7.91419 234.017 7.37996 232.546 7.57457C232.546 7.57457 234.097 6.73506 236.971 7.64326L238.172 7.10521C238.172 7.10521 236.365 6.7465 235.835 6.69308C235.306 6.63966 235.279 6.49083 235.279 6.49083C236.423 6.30027 237.597 6.4324 238.671 6.87243C238.671 6.87243 241.243 5.92989 241.198 5.76962Z" fill="#4DC274"/>
<defs>
<linearGradient id="paint0_linear" x1="250.749" y1="192.68" x2="250.749" y2="39.1632" gradientUnits="userSpaceOnUse">
<stop stop-color="#808080" stop-opacity="0.25"/>
<stop offset="0.54" stop-color="#808080" stop-opacity="0.12"/>
<stop offset="1" stop-color="#808080" stop-opacity="0.1"/>
</linearGradient>
<linearGradient id="paint1_linear" x1="15130.7" y1="95622.5" x2="33954.8" y2="95622.5" gradientUnits="userSpaceOnUse">
<stop stop-color="#808080" stop-opacity="0.25"/>
<stop offset="0.54" stop-color="#808080" stop-opacity="0.12"/>
<stop offset="1" stop-color="#808080" stop-opacity="0.1"/>
</linearGradient>
</defs>
</svg>
