<svg width="425" height="539" viewBox="0 0 425 539" fill="none" xmlns="http://www.w3.org/2000/svg">
<path opacity="0.1" d="M317 158.5C317 246.037 246.037 317 158.5 317C70.9629 317 0 246.037 0 158.5C0 70.9629 70.9629 0 158.5 0C246.037 0 317 70.9629 317 158.5ZM19.0329 158.5C19.0329 235.526 81.4745 297.967 158.5 297.967C235.526 297.967 297.967 235.526 297.967 158.5C297.967 81.4745 235.526 19.0329 158.5 19.0329C81.4745 19.0329 19.0329 81.4745 19.0329 158.5Z" fill="#27AE60"/>
<path opacity="0.1" d="M669 302.5C669 433.115 563.115 539 432.5 539C301.885 539 196 433.115 196 302.5C196 171.885 301.885 66 432.5 66C563.115 66 669 171.885 669 302.5ZM224.399 302.5C224.399 417.431 317.569 510.601 432.5 510.601C547.431 510.601 640.601 417.431 640.601 302.5C640.601 187.569 547.431 94.3993 432.5 94.3993C317.569 94.3993 224.399 187.569 224.399 302.5Z" fill="#BB6BD9"/>
</svg>
