<svg width="519" height="554" viewBox="0 0 519 554" fill="none" xmlns="http://www.w3.org/2000/svg">
<path opacity="0.1" d="M340 236.5C340 367.115 234.115 473 103.5 473C-27.1153 473 -133 367.115 -133 236.5C-133 105.885 -27.1153 0 103.5 0C234.115 0 340 105.885 340 236.5ZM-104.601 236.5C-104.601 351.431 -11.4308 444.601 103.5 444.601C218.431 444.601 311.601 351.431 311.601 236.5C311.601 121.569 218.431 28.3993 103.5 28.3993C-11.4308 28.3993 -104.601 121.569 -104.601 236.5Z" fill="#EB5757"/>
<path opacity="0.1" d="M519 395.5C519 483.037 448.037 554 360.5 554C272.963 554 202 483.037 202 395.5C202 307.963 272.963 237 360.5 237C448.037 237 519 307.963 519 395.5ZM221.033 395.5C221.033 472.526 283.474 534.967 360.5 534.967C437.526 534.967 499.967 472.526 499.967 395.5C499.967 318.474 437.526 256.033 360.5 256.033C283.474 256.033 221.033 318.474 221.033 395.5Z" fill="#F2994A"/>
</svg>
